<svg xmlns="http://www.w3.org/2000/svg" width="490.8" height="490.7" viewBox="0 0 490.8 490.7">
  <defs>
    <style>
      .a {
        fill: #fa5458;
      }
    </style>
  </defs>
  <title>Asset 3</title>
  <path class="a" d="M364.8,299.5c46.3-75.8,36.9-176.3-28.6-241.9-76.8-76.8-201.8-76.8-278.6,0s-76.8,201.8,0,278.5c65.5,65.5,166,74.9,241.9,28.6L412,477.2a46.17,46.17,0,0,0,65.3-65.3Zm-69.3-4c-54.4,54.4-142.8,54.4-197.1,0S44,152.7,98.4,98.4s142.8-54.4,197.1,0S349.8,241.1,295.5,295.5ZM220,171.9h59.4v45.3H220v59.4H174.7V217.2H115.4V171.9h59.4V112.5h45.3v59.4Z"/>
</svg>
