<svg xmlns="http://www.w3.org/2000/svg" width="385.99" height="388.5" viewBox="0 0 385.99 388.5">
  <defs>
    <style>
      .a, .b {
        fill: #fa5458;
        stroke: #fff;
        stroke-miterlimit: 10;
      }

      .a {
        stroke-width: 8px;
      }

      .b {
        stroke-width: 3px;
      }
    </style>
  </defs>
  <title>Asset 97</title>
  <g>
    <path class="a" d="M197,35.92H179.44a44,44,0,0,0-84.58,0H77.3a12.06,12.06,0,0,0-12,12V71.82A28.07,28.07,0,0,0,93.26,99.75H181A28.07,28.07,0,0,0,209,71.82V47.89A12.06,12.06,0,0,0,197,35.92Z"/>
    <path class="b" d="M228.91,51.87h-4V71.82A43.86,43.86,0,0,1,181,115.71H93.26A43.86,43.86,0,0,1,49.37,71.82V51.87h-4A43.86,43.86,0,0,0,1.5,95.76V295.24a43.86,43.86,0,0,0,43.89,43.88H163.16l3.51-19.62A44.33,44.33,0,0,1,178.8,296l12.76-12.77H61.34a12,12,0,0,1,0-23.94H213a5.4,5.4,0,0,1,2.23.32h.16l57.45-57.45V95.76a43.86,43.86,0,0,0-43.88-43.89ZM213,231.41H61.34a12,12,0,0,1,0-23.94H213a12,12,0,0,1,0,23.94Zm0-51.87H61.34a12,12,0,0,1,0-23.94H213a12,12,0,0,1,0,23.94Z"/>
    <path class="b" d="M201.41,387a12,12,0,0,1-11.78-14.06L198.09,325a12.09,12.09,0,0,1,3.32-6.39L319.9,200.13c14.55-14.59,28.85-10.65,36.67-2.83L376.31,217a27.94,27.94,0,0,1,0,39.5L257.82,375a11.82,11.82,0,0,1-6.38,3.32l-48,8.46a11.07,11.07,0,0,1-2.07.19Zm48-20.43h0Z"/>
  </g>
</svg>
