<svg xmlns="http://www.w3.org/2000/svg" width="250.82" height="85" viewBox="0 0 250.82 85">
  <defs>
    <style>
      .a {
        fill: #fff;
      }

      .b {
        fill: #f2f2f2;
      }
    </style>
  </defs>
  <title>Asset 4</title>
  <g>
    <g>
      <path class="a" d="M219.91,85h0C202.91,85,189,63.67,189,52.72V19.91C189,9,202.91,0,219.91,0h0c17,0,30.91,9,30.91,19.91V56C250.82,66.9,236.91,85,219.91,85Z"/>
      <path class="b" d="M219.44,78h0c-10.46,0-20-5.46-26.79-12.26C198,75.38,208,85,219.44,85h0c12.13,0,22.68-9.21,27.73-18.47C240.28,72.93,230.39,78,219.44,78Z"/>
    </g>
    <g>
      <path class="a" d="M30.91,85h0C13.91,85,0,63.67,0,52.72V19.91C0,9,13.91,0,30.91,0h0c17,0,30.91,9,30.91,19.91V56C61.82,66.9,47.91,85,30.91,85Z"/>
      <path class="b" d="M30.44,78h0C20,78,10.48,72.54,3.65,65.74,9,75.38,19,85,30.44,85h0c12.13,0,22.68-9.21,27.73-18.47C51.28,72.93,41.39,78,30.44,78Z"/>
    </g>
  </g>
</svg>
