<svg xmlns="http://www.w3.org/2000/svg" width="32.86" height="38.86" viewBox="0 0 32.86 38.86">
  <defs>
    <style>
      .a {
        fill: #fff;
      }
    </style>
  </defs>
  <title>Asset 1</title>
  <g>
    <path class="a" d="M18.36,38.61a.24.24,0,0,1-.25-.25v-4a.26.26,0,0,1,.21-.25A11.73,11.73,0,0,0,18.61,11V18.5a.25.25,0,0,1-.15.23l-.1,0a.22.22,0,0,1-.17-.07l-9.1-8.9A.25.25,0,0,1,9,9.6a.29.29,0,0,1,.07-.18l9.1-9.1a.31.31,0,0,1,.18-.07l.1,0a.25.25,0,0,1,.15.23V6.42a16.24,16.24,0,0,1-.22,32.19Zm-4,0a16.06,16.06,0,0,1-7.92-3.27.26.26,0,0,1,0-.38l2.88-2.9A.31.31,0,0,1,9.44,32a.3.3,0,0,1,.15.05,11.46,11.46,0,0,0,4.81,2,.26.26,0,0,1,.21.25v4.06a.24.24,0,0,1-.25.25ZM3.72,32.53a.24.24,0,0,1-.18-.1,16.16,16.16,0,0,1-3.29-7.9.3.3,0,0,1,.06-.2.27.27,0,0,1,.19-.08h4a.26.26,0,0,1,.25.21,11.52,11.52,0,0,0,2,4.84.27.27,0,0,1,0,.32L3.92,32.46a.29.29,0,0,1-.18.07ZM.5,20.75a.27.27,0,0,1-.19-.08.3.3,0,0,1-.06-.2,16.15,16.15,0,0,1,3.31-7.9.27.27,0,0,1,.18-.1h0a.29.29,0,0,1,.18.07l2.82,2.84a.26.26,0,0,1,0,.32,11.64,11.64,0,0,0-2,4.84.26.26,0,0,1-.25.21Z"/>
    <path class="a" d="M18.36.5V6.64a16,16,0,0,1,0,31.72v-4a12,12,0,0,0,0-23.64V18.5L9.26,9.6,18.36.5M3.76,12.72l2.82,2.84a11.87,11.87,0,0,0-2,4.94H.5a15.84,15.84,0,0,1,3.26-7.78M4.54,24.5a12,12,0,0,0,2,4.94L3.74,32.28A15.81,15.81,0,0,1,.5,24.5h4m4.9,7.74a11.83,11.83,0,0,0,4.92,2.06v4.06a15.85,15.85,0,0,1-7.8-3.22l2.88-2.9M18.36,0A.47.47,0,0,0,18,.15l-9.1,9.1a.47.47,0,0,0-.15.35.49.49,0,0,0,.15.36l9.1,8.9a.52.52,0,0,0,.35.14.41.41,0,0,0,.19,0,.5.5,0,0,0,.31-.46V11.29a11.49,11.49,0,0,1-.58,22.54.5.5,0,0,0-.42.49v4a.48.48,0,0,0,.17.37.46.46,0,0,0,.33.13h.06A16.49,16.49,0,0,0,18.86,6.2V.5A.5.5,0,0,0,18.55,0a.43.43,0,0,0-.19,0ZM3.76,12.22h0a.54.54,0,0,0-.37.19,16.48,16.48,0,0,0-3.36,8,.52.52,0,0,0,.13.39A.48.48,0,0,0,.5,21h4A.5.5,0,0,0,5,20.58a11.47,11.47,0,0,1,2-4.73.49.49,0,0,0-.06-.64L4.11,12.37a.47.47,0,0,0-.35-.15ZM4.54,24H.5a.48.48,0,0,0-.37.17.52.52,0,0,0-.13.39,16.48,16.48,0,0,0,3.34,8,.54.54,0,0,0,.37.19h0a.47.47,0,0,0,.35-.15l2.82-2.84A.49.49,0,0,0,7,29.16,11.55,11.55,0,0,1,5,24.42.49.49,0,0,0,4.54,24Zm4.9,7.74a.47.47,0,0,0-.35.15l-2.88,2.9a.46.46,0,0,0-.15.38.52.52,0,0,0,.19.37,16.48,16.48,0,0,0,8.05,3.32h.06a.46.46,0,0,0,.33-.13.48.48,0,0,0,.17-.37V34.3a.5.5,0,0,0-.42-.49,11.25,11.25,0,0,1-4.71-2,.52.52,0,0,0-.29-.09Z"/>
  </g>
</svg>
