<svg xmlns="http://www.w3.org/2000/svg" width="32.86" height="38.86" viewBox="0 0 32.86 38.86">
  <defs>
    <style>
      .a {
        fill: #fff;
      }
    </style>
  </defs>
  <title>Asset 2</title>
  <g>
    <path class="a" d="M14.47,38.61a16.24,16.24,0,0,1-.22-32.19V.5A.25.25,0,0,1,14.4.27l.1,0a.31.31,0,0,1,.18.07l9.1,9.1a.29.29,0,0,1,.07.18.25.25,0,0,1-.08.18l-9.1,8.9a.22.22,0,0,1-.17.07l-.1,0a.25.25,0,0,1-.15-.23V11a11.73,11.73,0,0,0,.29,23.09.26.26,0,0,1,.21.25v4a.24.24,0,0,1-.25.25Zm4,0a.24.24,0,0,1-.25-.25v-4a.26.26,0,0,1,.21-.25,11.38,11.38,0,0,0,4.81-2,.3.3,0,0,1,.15-.05.26.26,0,0,1,.18.07l2.88,2.88a.26.26,0,0,1,0,.38,16.06,16.06,0,0,1-7.92,3.27Zm10.62-6.06a.29.29,0,0,1-.18-.07L26.1,29.64a.26.26,0,0,1,0-.32,11.77,11.77,0,0,0,2-4.86.26.26,0,0,1,.25-.21h4a.27.27,0,0,1,.19.08.3.3,0,0,1,.06.2,16.16,16.16,0,0,1-3.29,7.9.27.27,0,0,1-.18.1Zm-.8-11.78a.26.26,0,0,1-.25-.21,11.44,11.44,0,0,0-2-4.83.27.27,0,0,1,0-.33l2.84-2.84a.29.29,0,0,1,.18-.07h0a.24.24,0,0,1,.18.1,16.16,16.16,0,0,1,3.29,7.9.3.3,0,0,1-.06.2.27.27,0,0,1-.19.08Z"/>
    <path class="a" d="M14.5.5l9.1,9.1-9.1,8.9V10.68a12,12,0,0,0,0,23.64v4a16,16,0,0,1,0-31.72V.5M29.12,12.72a15.81,15.81,0,0,1,3.24,7.78h-4a11.61,11.61,0,0,0-2-4.94l2.84-2.84M32.36,24.5h0m0,0a15.81,15.81,0,0,1-3.24,7.78l-2.84-2.82a11.79,11.79,0,0,0,2-5h4m-8.94,7.74,2.88,2.88a15.85,15.85,0,0,1-7.8,3.22v-4a11.57,11.57,0,0,0,4.92-2.06M14.5,0a.43.43,0,0,0-.19,0A.5.5,0,0,0,14,.5V6.2a16.49,16.49,0,0,0,.44,32.66h.06a.46.46,0,0,0,.33-.13.48.48,0,0,0,.17-.37v-4a.5.5,0,0,0-.42-.49A11.49,11.49,0,0,1,14,11.29V18.5a.5.5,0,0,0,.31.46.41.41,0,0,0,.19,0,.52.52,0,0,0,.35-.14L24,10a.49.49,0,0,0,.15-.36A.47.47,0,0,0,24,9.25L14.85.15A.47.47,0,0,0,14.5,0ZM29.12,12.22a.47.47,0,0,0-.35.15l-2.84,2.84a.49.49,0,0,0-.06.64,11.22,11.22,0,0,1,2,4.73.5.5,0,0,0,.49.42h4a.48.48,0,0,0,.37-.17.52.52,0,0,0,.13-.39,16.48,16.48,0,0,0-3.34-8,.54.54,0,0,0-.37-.19ZM32.36,24h-4a.5.5,0,0,0-.49.42,11.46,11.46,0,0,1-2,4.75.49.49,0,0,0,.06.64l2.84,2.82a.47.47,0,0,0,.35.15h0a.52.52,0,0,0,.37-.19,16.39,16.39,0,0,0,3.33-8,.41.41,0,0,0,0-.11.5.5,0,0,0-.5-.5Zm0,1Zm-8.94,6.74a.52.52,0,0,0-.29.09,11.11,11.11,0,0,1-4.71,2,.5.5,0,0,0-.42.49v4a.48.48,0,0,0,.17.37.46.46,0,0,0,.33.13h.06a16.48,16.48,0,0,0,8.05-3.32.54.54,0,0,0,.19-.37.46.46,0,0,0-.15-.38l-2.88-2.88a.47.47,0,0,0-.35-.15Z"/>
  </g>
</svg>
