<svg xmlns="http://www.w3.org/2000/svg" width="274" height="274" viewBox="0 0 274 274">
  <defs>
    <style>
      .a {
        fill: #fa5458;
      }
    </style>
  </defs>
  <title>Asset 95</title>
  <g>
    <path class="a" d="M137,240.15a103.14,103.14,0,1,1,72.94-30.21A102.49,102.49,0,0,1,137,240.15M137,274A137,137,0,1,0,0,137,137,137,0,0,0,137,274Z"/>
    <g>
      <path class="a" d="M137.32,62.43a17.24,17.24,0,0,1,17.24,17.25v67.06a17.25,17.25,0,0,1-34.49,0V79.68A17.25,17.25,0,0,1,137.32,62.43Z"/>
      <circle class="a" cx="137" cy="194.96" r="17.24"/>
    </g>
  </g>
</svg>
