<svg xmlns="http://www.w3.org/2000/svg" width="159.17" height="143.25" viewBox="0 0 159.17 143.25">
  <defs>
    <style>
      .a {
        fill: #fa5458;
      }
    </style>
  </defs>
  <title>Asset 1</title>
  <path class="a" d="M159.17,55.55v71.78a16,16,0,0,1-15.92,15.92H15.92A16,16,0,0,1,0,127.33V31.83A16,16,0,0,1,15.92,15.92H96.3a43.22,43.22,0,0,0-.8,8A39.57,39.57,0,0,0,108.79,53.4L79.58,71.62,15.92,31.83V47.75L79.58,87.54l42.18-26.42a38.61,38.61,0,0,0,13.53,2.55A39.69,39.69,0,0,0,159.17,55.55ZM111.42,23.88A23.88,23.88,0,1,0,135.29,0,23.84,23.84,0,0,0,111.42,23.88Z"/>
</svg>
