<svg xmlns="http://www.w3.org/2000/svg" width="148.75" height="127.5" viewBox="0 0 148.75 127.5">
  <defs>
    <style>
      .a {
        fill: #fa5458;
      }
    </style>
  </defs>
  <title>Asset 1</title>
  <path class="a" d="M70.83,106.25a49.54,49.54,0,0,1,70.84-44.77V14.17A14.22,14.22,0,0,0,127.5,0H14.17A14.22,14.22,0,0,0,0,14.17v85a14.21,14.21,0,0,0,14.17,14.16H71.4A47.4,47.4,0,0,1,70.83,106.25ZM14.17,14.17,70.83,49.58,127.5,14.17V28.33L70.83,63.75,14.17,28.33ZM108.66,127.5,83.58,102.42l10-10,15,15,30-30,10.13,10Z"/>
</svg>
