<svg xmlns="http://www.w3.org/2000/svg" width="694" height="228" viewBox="0 0 694 228">
  <defs>
    <style>
      .a {
        fill: #feb562;
      }

      .b {
        fill: #fa5458;
      }
    </style>
  </defs>
  <title>Asset 104</title>
  <g>
    <path class="a" d="M537.36,132.24a20.63,20.63,0,0,0-19.82,14.92,20.63,20.63,0,0,0-40.46,5.72c0,18.91,27.39,39.09,37.1,45.65a5.76,5.76,0,0,0,6.62-.12c9.61-7,37.2-28.68,37.2-45.53A20.64,20.64,0,0,0,537.36,132.24Z"/>
    <path class="a" d="M247.52,150.84a12.48,12.48,0,0,0-12,9,12.47,12.47,0,0,0-24.46,3.46c0,11.44,16.56,23.64,22.43,27.6a3.46,3.46,0,0,0,4-.07c5.81-4.25,22.49-17.34,22.49-27.53A12.48,12.48,0,0,0,247.52,150.84Z"/>
    <path class="a" d="M169.82,75.59A9.17,9.17,0,0,0,161,82.22a9.18,9.18,0,0,0-18,2.55c0,8.41,12.18,17.39,16.5,20.31a2.57,2.57,0,0,0,2.95,0C166.73,101.9,179,92.27,179,84.77A9.18,9.18,0,0,0,169.82,75.59Z"/>
    <path class="a" d="M492.82,42.59A9.17,9.17,0,0,0,484,49.22a9.18,9.18,0,0,0-18,2.55c0,8.41,12.18,17.39,16.5,20.31a2.57,2.57,0,0,0,2.95,0C489.73,68.9,502,59.27,502,51.77A9.18,9.18,0,0,0,492.82,42.59Z"/>
    <g>
      <rect class="b" x="25.21" y="141" width="29.74" height="80.16" rx="3.94"/>
      <rect class="b" y="166.21" width="80.16" height="29.74" rx="3.94"/>
    </g>
    <g>
      <rect class="b" x="314.3" width="20.4" height="55" rx="2.71"/>
      <rect class="b" x="297" y="17.3" width="55" height="20.4" rx="2.71"/>
    </g>
    <g>
      <rect class="b" x="656.3" y="173" width="20.4" height="55" rx="2.71"/>
      <rect class="b" x="639" y="190.3" width="55" height="20.4" rx="2.71"/>
    </g>
    <g>
      <rect class="b" x="387.38" y="94" width="12.24" height="33" rx="1.62"/>
      <rect class="b" x="377" y="104.38" width="33" height="12.24" rx="1.62"/>
    </g>
    <g>
      <rect class="b" x="606.38" y="90" width="12.24" height="33" rx="1.62"/>
      <rect class="b" x="596" y="100.38" width="33" height="12.24" rx="1.62"/>
    </g>
  </g>
</svg>
