<svg xmlns="http://www.w3.org/2000/svg" xmlns:xlink="http://www.w3.org/1999/xlink" width="493.14" height="407.23" viewBox="0 0 493.14 407.23">
  <defs>
    <style>
      .a, .u, .w {
        fill: none;
      }

      .b, .c, .y {
        fill: #feb562;
      }

      .c, .l, .m, .n, .o, .p, .q, .r {
        fill-rule: evenodd;
      }

      .d, .q, .s {
        fill: #fff;
      }

      .e {
        fill: #f2f2f2;
      }

      .f {
        fill: #ff5353;
      }

      .g {
        clip-path: url(#a);
      }

      .h {
        fill: #d84545;
      }

      .i, .m {
        fill: #fad8cd;
      }

      .j {
        fill: #f9d7cd;
      }

      .k {
        fill: #fa5458;
      }

      .l {
        fill: #f4bdae;
      }

      .n {
        fill: #d7766d;
      }

      .o {
        fill: #54514f;
      }

      .p {
        fill: #f3d9c7;
      }

      .r {
        fill: #d26070;
      }

      .s, .u {
        stroke: #666;
        stroke-miterlimit: 10;
        stroke-width: 1.03px;
      }

      .t {
        fill: #383838;
      }

      .v {
        fill: #e84d4d;
      }

      .w {
        stroke: #fa5458;
        stroke-linecap: round;
        stroke-linejoin: round;
        stroke-width: 3.78px;
      }

      .x {
        fill: #bc3c3c;
      }

      .y {
        opacity: 0.2;
      }
    </style>
    <clipPath id="a">
      <circle class="a" cx="145.2" cy="105.72" r="43.28"/>
    </clipPath>
  </defs>
  <title>Asset 7</title>
  <g>
    <ellipse class="b" cx="39.17" cy="132.12" rx="24.23" ry="19.32" transform="translate(-83.11 68.57) rotate(-46.02)"/>
    <ellipse class="b" cx="45.93" cy="92.68" rx="8.88" ry="8.74" transform="translate(-37.64 31.72) rotate(-27.53)"/>
    <path class="c" d="M464.91,184.67l-.14-.13a18.69,18.69,0,0,1-2.23-24.84,109.28,109.28,0,0,0,9.93-15.62c26.28-50.16,9.2-110.26-38.13-134.22s-107-2.73-133.29,47.43c-18.69,35.7-15.44,76.42,5.05,105.57a18.69,18.69,0,0,1-4.39,25.91,178.77,178.77,0,0,0-18.66,15.7,175.65,175.65,0,0,0-13.15,14.15,19.39,19.39,0,0,1-30.13-.54,189.64,189.64,0,0,0-23.63-25.53c-57.78-52-136.56-61.19-176-20.44s-24.5,116,33.28,168c52.14,47,121.38,59,163.35,30.94a15.17,15.17,0,0,1,19.83,2.67q2.78,3.24,5.9,6.26c44.56,43,126,34.14,181.86-19.8S509.46,227.68,464.91,184.67Z"/>
    <g>
      <path class="d" d="M414.5,107.06a8,8,0,1,1-6.29-9.42A8,8,0,0,1,414.5,107.06Zm-13.24-2.63a5.5,5.5,0,1,0,6.46-4.32A5.5,5.5,0,0,0,401.26,104.43Z"/>
      <g>
        <g>
          <path class="d" d="M432.07,88.43a1.25,1.25,0,0,1-1.47,1l-5.44-1.08a1.25,1.25,0,0,1-1-1.48,1.24,1.24,0,0,1,1.47-1L431.09,87A1.24,1.24,0,0,1,432.07,88.43Z"/>
          <path class="d" d="M441.58,90.32a1.26,1.26,0,0,1-1.48,1l-5.43-1.08a1.25,1.25,0,1,1,.49-2.46l5.43,1.08A1.25,1.25,0,0,1,441.58,90.32Z"/>
        </g>
        <g>
          <path class="d" d="M435.63,81.21l-1,4.88a1.26,1.26,0,1,1-2.47-.49l1-4.88a1.26,1.26,0,0,1,2.47.49Z"/>
          <path class="d" d="M433.56,91.58l-1,4.88a1.25,1.25,0,0,1-1.47,1,1.27,1.27,0,0,1-1-1.48l1-4.88a1.25,1.25,0,0,1,1.48-1A1.24,1.24,0,0,1,433.56,91.58Z"/>
        </g>
      </g>
      <g>
        <g>
          <path class="d" d="M439.63,50.45a1.25,1.25,0,0,1-1.48,1l-5.43-1.08a1.25,1.25,0,1,1,.49-2.46L438.64,49A1.26,1.26,0,0,1,439.63,50.45Z"/>
          <path class="d" d="M449.14,52.34a1.25,1.25,0,0,1-1.48,1l-5.43-1.08a1.25,1.25,0,0,1-1-1.47,1.26,1.26,0,0,1,1.48-1l5.43,1.08A1.27,1.27,0,0,1,449.14,52.34Z"/>
        </g>
        <g>
          <path class="d" d="M443.18,43.23l-1,4.88a1.25,1.25,0,0,1-2.46-.49l1-4.88a1.25,1.25,0,1,1,2.46.49Z"/>
          <path class="d" d="M441.12,53.6l-1,4.88a1.25,1.25,0,0,1-1.48,1,1.24,1.24,0,0,1-1-1.47l1-4.88a1.25,1.25,0,0,1,1.47-1A1.26,1.26,0,0,1,441.12,53.6Z"/>
        </g>
      </g>
      <path class="d" d="M422.06,69.07a8,8,0,1,1-6.29-9.41A8,8,0,0,1,422.06,69.07Zm-13.24-2.63a5.5,5.5,0,1,0,6.46-4.32A5.5,5.5,0,0,0,408.82,66.44Z"/>
    </g>
    <rect class="e" x="76.16" y="38.65" width="305" height="305" rx="14.68"/>
    <g>
      <g>
        <circle class="d" cx="145.2" cy="105.72" r="41.47"/>
        <path class="f" d="M145.2,66.05a39.67,39.67,0,1,1-39.67,39.67A39.72,39.72,0,0,1,145.2,66.05m0-3.61a43.28,43.28,0,1,0,43.27,43.28A43.28,43.28,0,0,0,145.2,62.44Z"/>
      </g>
      <g class="g">
        <g>
          <path class="h" d="M71.9,133.58s.85-5.53,10.67-5.93C82.57,127.65,81.08,136.43,71.9,133.58Z"/>
          <polygon class="i" points="85.1 134.68 77.12 140.56 71.43 128.14 78.87 123.86 85.1 134.68"/>
          <path class="i" d="M75.55,130.25c1.91-1.29,4.16-1.22,5.77-4.43,1.49-3,1.87-6.6,4-9.39a1.31,1.31,0,0,0-.53-2,2.31,2.31,0,0,0-1.65-.06c-1.68.58-3.58,6.13-3.58,6.13s-4.91-11.3-6.7-12.85-2.84-.22-1.77,2.62,3.46,9,3.46,9-5.13-7.56-6.69-9.67c-2.18-3-3.88-2.18-3,.07,1.8,4.55,5.42,11.2,5.42,11.2s-6-7.3-8.14-8.52c-1.08-.6-2.65.4-.93,2.83,2.39,3.4,5.41,8,5.41,8s-5.05-5.8-6.49-5.82-1.49,1.85.14,3.48S69.83,134.09,75.55,130.25Z"/>
          <polygon class="j" points="219.52 150.56 219.62 160.47 232.97 157.56 231.91 149.03 219.52 150.56"/>
          <path class="j" d="M236.35,144.19l-2.83,1.31-4.15,8.08a11.14,11.14,0,0,1,.76,1.89c1,3.72,5.72,4.23,10.08,3.94Z"/>
          <path class="j" d="M233.52,145.5s2.2-5.43,1.32-7a2.29,2.29,0,0,0-1.28-1,1.31,1.31,0,0,0-1.72,1.16c-.25,3.48-2.34,6.47-3.16,9.68a6.81,6.81,0,0,0,.69,5.24Z"/>
          <path class="j" d="M251.65,139.6c.1,1.44-.64,2.66-1.64,2.72s-1.88-1-2-2.5.64-2.66,1.64-2.72S251.56,138.16,251.65,139.6Z"/>
          <path class="j" d="M252.25,144.34c.09,1.44-.64,2.66-1.64,2.72s-1.88-1.05-2-2.5.64-2.66,1.64-2.72S252.16,142.9,252.25,144.34Z"/>
          <ellipse class="j" cx="250.94" cy="149.29" rx="1.78" ry="2.67" transform="translate(-6.37 11.26) rotate(-2.54)"/>
          <path class="j" d="M253.3,153.87c.07,1.44-.68,2.65-1.68,2.7s-1.86-1.09-1.93-2.53.68-2.65,1.68-2.7S253.23,152.43,253.3,153.87Z"/>
          <path class="k" d="M165,201.82l.08-44.54s18.6,13.1,26.29,12.41c13.16-1.19,37-9,37-9-.5-8-3.54-11.62-3.54-11.62s-8.8.6-18.69,1.55c-10.83,1-14.32,1.91-14.32,1.91S178.6,142.31,169.4,137a103.3,103.3,0,0,0-12.89-6.47,17.74,17.74,0,0,0-3.7-1.14l-16.82,0a22.8,22.8,0,0,0-3.62.78c-3.87,1-9.8,3.79-15.3,6.91-9.21,5.24-19,14.2-19,14.2s-1.27-4.83-7.75-12.48-7.77-11.17-7.77-11.17-2.91,4.19-10.67,5.93c0,0,10.81,34.2,24,35.43,7.69.72,27.92-11.79,27.92-11.79l-1,44.54Z"/>
          <path class="i" d="M150.85,112.26s-.11,11.57,3,17.11a9.76,9.76,0,0,1-17.44,0c3.13-5.54,3.22-17.11,3.22-17.11Z"/>
          <g>
            <path class="l" d="M130.53,102.7l-.31,0h0a4.25,4.25,0,1,0,3.56.86c.1,1.25-.1,2.81-1.71,3l.05-2.45A1.46,1.46,0,0,0,130.53,102.7Z"/>
            <path class="l" d="M160,102.7l.32,0h0a4.25,4.25,0,1,1-3.56.85c-.11,1.25.09,2.81,1.7,3l-.05-2.46A1.46,1.46,0,0,1,160,102.7Z"/>
          </g>
          <path class="m" d="M145.15,81.41h0a14.56,14.56,0,0,0-14.56,14.51l0,13.22a14.59,14.59,0,0,0,14.52,14.56h0a14.58,14.58,0,0,0,14.55-14.52l0-13.22A14.57,14.57,0,0,0,145.15,81.41Z"/>
          <g>
            <g>
              <path class="n" d="M152.78,109.39a2,2,0,1,0,2,1.93A2,2,0,0,0,152.78,109.39Z"/>
              <path class="n" d="M137.56,109.68a2,2,0,1,0,2,1.93A2,2,0,0,0,137.56,109.68Z"/>
            </g>
            <g>
              <path class="o" d="M140.52,99.11a.59.59,0,0,1,.3.78.6.6,0,0,1-.79.3,3.84,3.84,0,0,0-3.49.22.6.6,0,0,1-.64-1A5.07,5.07,0,0,1,140.52,99.11Z"/>
              <path class="o" d="M154.51,99.39a.59.59,0,0,1,.23.81.6.6,0,0,1-.81.23,3.9,3.9,0,0,0-3.5-.07.59.59,0,0,1-.55-1A5.14,5.14,0,0,1,154.51,99.39Z"/>
            </g>
            <path class="p" d="M145.59,107.54a12.44,12.44,0,0,1,.68,2.23c-.06.31-1.62.58-2,.18s.07-1.43.36-2.22C145,106.66,145.24,106.58,145.59,107.54Z"/>
            <g>
              <path class="o" d="M147.63,112.25a.54.54,0,0,1,.54.54,3,3,0,1,1-5.94,0,.55.55,0,0,1,.55-.54Z"/>
              <path class="q" d="M143,112.24h4.15v.61c.14.26-.08.47-.34.58h-3.3a.82.82,0,0,1-.51-.59Z"/>
              <path class="r" d="M147.35,114.94a3,3,0,0,1-4.31,0,3,3,0,0,1,2.16-.92A3,3,0,0,1,147.35,114.94Z"/>
            </g>
            <g>
              <path class="o" d="M138.29,107a1.71,1.71,0,1,0-1.7-1.71A1.71,1.71,0,0,0,138.29,107Z"/>
              <path class="o" d="M152.13,107.06a1.71,1.71,0,1,0-1.7-1.71A1.7,1.7,0,0,0,152.13,107.06Z"/>
            </g>
          </g>
          <path class="o" d="M159.79,106.24s-1.69-1.73-1.31-5.8a12.42,12.42,0,0,1-2-4.21c-.4-2.06,1.05-6.76,1.05-6.76h2.75c1,0,1.59,2.78,1.89,4.07s-.93,9.5-.93,9.5C160.66,102.73,159.79,104.13,159.79,106.24Z"/>
          <path class="o" d="M161,92.24s2.95-.87,3.83-3.08-1-3.6-2.93-2.54A11.39,11.39,0,0,0,155,77.14c-6.68-3-16.23.75-16.23.75s-1.94-7.09-8.07-6.33-7.45,18.35.05,20.86,20.5.26,20.5.26,2.7,3.49,5.64,2.91A6,6,0,0,0,161,92.24Z"/>
          <path class="o" d="M130.63,106.2s1.69-1.72,1.33-5.8a12.7,12.7,0,0,0,2-4.21c.4-2.06-1-6.75-1-6.75h-2.75c-1,0-1.59,2.78-1.9,4.07s.9,9.51.9,9.51C129.77,102.68,130.64,104.09,130.63,106.2Z"/>
          <path class="q" d="M136.36,129.13l-3.3.53.55.55c1.83,4.3,6.84,6.73,10.43,7.39a11,11,0,0,0,8.58-1.69,11.76,11.76,0,0,0,3.92-5.29l.13-.24c-.89-.11-1.75-1-2.6-1.1a.21.21,0,0,0-.2.11C150.14,136.45,138.52,133.08,136.36,129.13Z"/>
          <g>
            <rect class="s" x="235.71" y="133.69" width="13.89" height="26.56" rx="2.71" transform="translate(-16.46 31.47) rotate(-7.18)"/>
            <path class="t" d="M243.87,135.18l-5.32.67a.83.83,0,0,1-.87-.47l-.49-1,7.63-1-.22,1.1A.85.85,0,0,1,243.87,135.18Z"/>
            <rect class="u" x="235.71" y="133.69" width="13.89" height="26.56" rx="2.71" transform="translate(-16.46 31.47) rotate(-7.18)"/>
            <g>
              <rect class="k" x="241.1" y="142.79" width="3.1" height="8.36" rx="0.41" transform="translate(-16.46 31.47) rotate(-7.18)"/>
              <rect class="k" x="238.47" y="145.42" width="8.36" height="3.1" rx="0.41" transform="translate(-16.46 31.47) rotate(-7.18)"/>
            </g>
          </g>
          <path class="v" d="M123,190.76l-.26,11,42.25.06,0-10.71A41,41,0,0,1,123,190.76Z"/>
        </g>
      </g>
    </g>
    <g>
      <path class="b" d="M201.63,75H327.41a11.5,11.5,0,0,1,11.5,11.5v.7a11.5,11.5,0,0,1-11.5,11.5H201.63a2.85,2.85,0,0,1-2.85-2.85v-18A2.85,2.85,0,0,1,201.63,75Z"/>
      <rect class="d" x="198.78" y="107.94" width="115.41" height="5.88" rx="2.85"/>
      <rect class="d" x="198.78" y="130.6" width="83.97" height="5.88" rx="2.85"/>
      <rect class="d" x="198.78" y="119.29" width="54.19" height="5.87" rx="2.85"/>
    </g>
    <g>
      <rect class="d" x="318.2" y="141.13" width="125.96" height="170.39" rx="14.68"/>
      <g>
        <path class="b" d="M365,157.82a12.08,12.08,0,1,1-12.08,12.07A12.08,12.08,0,0,1,365,157.82Z"/>
        <path class="b" d="M397.59,232.57c-1-10.74-2-21.49-6.17-31.63a30.61,30.61,0,0,0-7.52-11.37,21.11,21.11,0,0,0-10-5.13,4.26,4.26,0,0,0-2.63.24,16.13,16.13,0,0,1-12.5,0,4.27,4.27,0,0,0-2.63-.24,21.14,21.14,0,0,0-10,5.13,30.85,30.85,0,0,0-7.52,11.37c-4.12,10.14-5.16,20.89-6.16,31.63a3.68,3.68,0,0,0,3.59,4,3.76,3.76,0,0,0,4.41-3.49c.56-4.73,1-9.47,1.81-14.17a42.71,42.71,0,0,1,5.56-15.41.37.37,0,0,1,.68.26,78.53,78.53,0,0,0-1.07,10.5,280.63,280.63,0,0,0,2,47.14c1.14,9.52,2.15,19.05,3.28,28.57a5.41,5.41,0,0,0,7.48,4.51c2.75-1,4-3.08,3.85-6.59-.87-15.71-2.17-31.41-1.13-47.16.07-1,.1-2.05.15-3.07.08-1.31.83-1.18,1.56-1.08a2.89,2.89,0,0,0,.83,0c.73-.1,1.48-.23,1.56,1.08.06,1,.08,2,.15,3.07,1.05,15.75-.25,31.45-1.13,47.16-.19,3.51,1.1,5.62,3.86,6.59a5.4,5.4,0,0,0,7.47-4.51c1.14-9.52,2.14-19.05,3.29-28.57a282.75,282.75,0,0,0,2-47.14,82,82,0,0,0-1.07-10.5.37.37,0,0,1,.67-.26,42.71,42.71,0,0,1,5.56,15.41c.83,4.7,1.26,9.44,1.81,14.17a3.76,3.76,0,0,0,4.42,3.49A3.68,3.68,0,0,0,397.59,232.57Z"/>
      </g>
      <g>
        <line class="w" x1="407.25" y1="160.01" x2="407.25" y2="292.64"/>
        <g>
          <line class="w" x1="416.92" y1="169.95" x2="423.33" y2="169.95"/>
          <line class="w" x1="416.92" y1="184.04" x2="429.95" y2="184.04"/>
          <line class="w" x1="416.92" y1="198.14" x2="423.33" y2="198.14"/>
          <line class="w" x1="416.92" y1="212.23" x2="429.95" y2="212.23"/>
          <line class="w" x1="416.92" y1="226.33" x2="423.33" y2="226.33"/>
          <line class="w" x1="416.92" y1="240.42" x2="429.95" y2="240.42"/>
          <line class="w" x1="416.92" y1="254.51" x2="423.33" y2="254.51"/>
          <line class="w" x1="416.92" y1="268.61" x2="429.95" y2="268.61"/>
          <line class="w" x1="416.92" y1="282.7" x2="423.33" y2="282.7"/>
        </g>
      </g>
    </g>
    <rect class="d" x="102.16" y="161.65" width="199" height="118" rx="14.68"/>
    <rect class="d" x="102.16" y="297.3" width="199" height="5.87" rx="2.94"/>
    <rect class="b" x="102.16" y="297.3" width="103.62" height="5.87" rx="2.94"/>
    <rect class="b" x="102.16" y="312.18" width="106" height="5.87" rx="2.94"/>
    <g>
      <path class="k" d="M169.78,227.16a7.2,7.2,0,0,0,5-2l7.13,3.57a6.42,6.42,0,0,0-.09.87,7.23,7.23,0,0,0,14.46,0h0a7.19,7.19,0,0,0-.73-3.09l9.67-9.67a7.19,7.19,0,0,0,10.33-6.5,7.14,7.14,0,0,0-.37-2.15l8.41-6.27a7.21,7.21,0,1,0-3.23-6,7.38,7.38,0,0,0,.36,2.14l-8.4,6.28a7.2,7.2,0,0,0-10.5,9.12l-9.68,9.66a7.09,7.09,0,0,0-8.09,1.31l-7.14-3.56A6.4,6.4,0,0,0,177,220a7.23,7.23,0,1,0-7.24,7.21Z"/>
      <path class="k" d="M234.35,263.3V215.07a2.24,2.24,0,0,0-2.13-2.35h-8.81a2.31,2.31,0,0,0-2.19,2.41V263.3a2.25,2.25,0,0,0,2.14,2.35h8.86A2.24,2.24,0,0,0,234.35,263.3Z"/>
      <path class="k" d="M215.08,263.3V229.52a2.25,2.25,0,0,0-2.14-2.35h-8.86a2.25,2.25,0,0,0-2.13,2.35V263.3a2.25,2.25,0,0,0,2.13,2.35h8.86A2.25,2.25,0,0,0,215.08,263.3Z"/>
      <path class="k" d="M176.81,263.3V239.18a2.25,2.25,0,0,0-2.14-2.35h-8.85a2.25,2.25,0,0,0-2.14,2.35V263.3a2.25,2.25,0,0,0,2.14,2.35h8.85A2.25,2.25,0,0,0,176.81,263.3Z"/>
      <path class="k" d="M195.94,263.3V248.8a2.24,2.24,0,0,0-2.13-2.35H185a2.25,2.25,0,0,0-2.14,2.35v14.5a2.25,2.25,0,0,0,2.14,2.35h8.86A2.24,2.24,0,0,0,195.94,263.3Z"/>
    </g>
    <g>
      <rect class="x" x="83.77" y="283.24" width="50.62" height="17.42" transform="translate(341.1 500.04) rotate(152.37)"/>
      <rect class="f" x="-4.77" y="304.01" width="137.73" height="22.95" rx="6.4" transform="translate(-138.97 65.68) rotate(-27.62)"/>
      <path class="f" d="M122.59,264.23A83.55,83.55,0,1,0,176.3,159,83.54,83.54,0,0,0,122.59,264.23Zm13-4.23a69.83,69.83,0,1,1,135.2-9.4h0A69.84,69.84,0,0,1,135.64,260Z"/>
      <circle class="y" cx="202.06" cy="238.47" r="75.5"/>
      <path class="y" d="M141.07,202.7s82.89-38.84,130,47.83h0a71.22,71.22,0,0,0-2.48-34.12c-12.06-37.19-51.64-57.69-88.41-45.77A69.3,69.3,0,0,0,141.07,202.7Z"/>
    </g>
  </g>
</svg>
