<svg xmlns="http://www.w3.org/2000/svg" width="378.47" height="392.98" viewBox="0 0 378.47 392.98">
  <defs>
    <style>
      .a, .v {
        fill: #feb562;
      }

      .a, .k, .l, .m, .n, .o, .p, .q {
        fill-rule: evenodd;
      }

      .b, .p, .r, .w {
        fill: #fff;
      }

      .c {
        fill: #e7e7e7;
      }

      .d {
        fill: #cdcdcd;
      }

      .e {
        fill: #858585;
      }

      .f {
        fill: #666;
      }

      .g {
        fill: #d84545;
      }

      .h, .l {
        fill: #fad8cd;
      }

      .i {
        fill: #f9d7cd;
      }

      .j {
        fill: #fa5458;
      }

      .k {
        fill: #f4bdae;
      }

      .m {
        fill: #d7766d;
      }

      .n {
        fill: #54514f;
      }

      .o {
        fill: #f3d9c7;
      }

      .q {
        fill: #d26070;
      }

      .r, .t {
        stroke: #666;
        stroke-miterlimit: 10;
        stroke-width: 1.74px;
      }

      .s {
        fill: #383838;
      }

      .t {
        fill: none;
      }

      .u {
        fill: #e84d4d;
      }

      .w {
        stroke: #fff;
        stroke-linecap: round;
        stroke-linejoin: round;
        stroke-width: 1.5px;
      }
    </style>
  </defs>
  <title>Asset 9</title>
  <g>
    <path class="a" d="M375.49,249.59c-14.35-54.07-76.43-81.55-138.68-61.38a137.27,137.27,0,0,0-62.83,42,38.42,38.42,0,0,1-46.85,9.44,111.18,111.18,0,0,0-14.25-6.09c-48.8-17-98.13,3.65-110.2,46S20.38,370.08,69.18,387c30.69,10.67,73.59,6.46,95.3-8.67a37.83,37.83,0,0,1,40.11-1.67c26.41,14.94,49.26,18.61,84.16,7.3C351,363.84,389.83,303.66,375.49,249.59Z"/>
    <g>
      <rect class="b" x="109.23" y="43.71" width="160" height="310" rx="14.68"/>
      <rect class="c" x="125.23" y="91.71" width="128" height="128" rx="3.78"/>
      <rect class="c" x="125.02" y="58.71" width="22.62" height="22.62" rx="4.31"/>
      <rect class="c" x="125.23" y="229.52" width="128" height="33.19" rx="3.68"/>
      <rect class="c" x="125.23" y="272.52" width="128" height="33.19" rx="3.68"/>
      <rect class="d" x="110.23" y="315.21" width="155" height="34.5"/>
      <g>
        <path class="c" d="M239.81,63.31h12.05a1.57,1.57,0,0,1,1.58,1.56v0h0a1.58,1.58,0,0,1-1.58,1.58H239.81a1.58,1.58,0,0,1-1.58-1.58h0A1.58,1.58,0,0,1,239.81,63.31Z"/>
        <path class="c" d="M239.81,68.3h12.05a1.57,1.57,0,0,1,1.58,1.56v0h0a1.58,1.58,0,0,1-1.58,1.58H239.81a1.58,1.58,0,0,1-1.58-1.58h0a1.58,1.58,0,0,1,1.58-1.58Z"/>
        <path class="c" d="M239.81,73.57h12.05a1.57,1.57,0,0,1,1.58,1.56v0h0a1.58,1.58,0,0,1-1.58,1.58H239.81a1.58,1.58,0,0,1-1.58-1.58h0a1.58,1.58,0,0,1,1.58-1.58Z"/>
      </g>
      <path class="e" d="M254.55,43.71a14.68,14.68,0,0,1,14.68,14.68h0V339a14.67,14.67,0,0,1-14.67,14.67H123.91A14.67,14.67,0,0,1,109.23,339h0V58.39a14.68,14.68,0,0,1,14.68-14.68H254.55m0-4H123.91a18.65,18.65,0,0,0-18.62,18.68V339a18.67,18.67,0,0,0,18.64,18.63H254.55A18.67,18.67,0,0,0,273.19,339V58.39a18.67,18.67,0,0,0-18.64-18.64Z"/>
      <path class="f" d="M254.55,49.65a8.74,8.74,0,0,1,8.74,8.74h0V339a8.77,8.77,0,0,1-8.74,8.74H123.91a8.76,8.76,0,0,1-8.74-8.74V58.39a8.74,8.74,0,0,1,8.74-8.74H254.55m0-5.94H123.91a14.68,14.68,0,0,0-14.68,14.68V339a14.67,14.67,0,0,0,14.67,14.67H254.55A14.68,14.68,0,0,0,269.23,339h0V58.39a14.68,14.68,0,0,0-14.68-14.68Z"/>
      <g>
        <circle class="b" cx="144.89" cy="246.13" r="11.87"/>
        <path class="b" d="M243.22,242.66l-78.63.53a2.19,2.19,0,0,1-2.3-2.08h0a2.17,2.17,0,0,1,2.23-2.11l78.63-.53a2.17,2.17,0,0,1,2.26,2.07h0A2.2,2.2,0,0,1,243.22,242.66Z"/>
        <path class="b" d="M231.13,252.53l-66.38.45a2.25,2.25,0,0,1-2.36-2.08h0a2.23,2.23,0,0,1,2.33-2.12l66.39-.45a2.23,2.23,0,0,1,2.35,2.09h0A2.24,2.24,0,0,1,231.13,252.53Z"/>
      </g>
      <g>
        <circle class="b" cx="144.89" cy="289.13" r="11.87"/>
        <path class="b" d="M243.22,285.66l-78.63.53a2.19,2.19,0,0,1-2.3-2.08h0a2.17,2.17,0,0,1,2.23-2.11l78.63-.53a2.17,2.17,0,0,1,2.26,2.07h0A2.2,2.2,0,0,1,243.22,285.66Z"/>
        <path class="b" d="M231.13,295.53l-66.38.45a2.25,2.25,0,0,1-2.36-2.08h0a2.23,2.23,0,0,1,2.33-2.12l66.39-.45a2.23,2.23,0,0,1,2.35,2.09h0A2.24,2.24,0,0,1,231.13,295.53Z"/>
      </g>
    </g>
    <g>
      <path class="g" d="M66.23,104.71s1.43-9.33,18-10C84.23,94.71,81.71,109.52,66.23,104.71Z"/>
      <polygon class="h" points="88.49 106.57 75.04 116.48 65.43 95.53 77.99 88.31 88.49 106.57"/>
      <path class="h" d="M72.38,99.08c3.22-2.16,7-2,9.74-7.47,2.51-5,3.15-11.12,6.69-15.83a2.22,2.22,0,0,0-.4-3.1h0a2,2,0,0,0-.49-.28,3.92,3.92,0,0,0-2.78-.09c-2.83,1-6,10.33-6,10.33S70.82,63.58,67.8,61s-4.8-.37-3,4.41,5.85,15.15,5.85,15.15S62,67.79,59.37,64.23c-3.68-5-6.56-3.68-5.06.12Q58.41,74,63.45,83.24S53.39,70.91,49.71,68.87c-1.82-1-4.46.67-1.57,4.77,4,5.73,9.14,13.43,9.14,13.43s-8.53-9.77-11-9.81-2.52,3.13.23,5.87S62.74,105.56,72.38,99.08Z"/>
      <polygon class="i" points="315.23 133.35 315.4 150.06 337.92 145.15 336.14 130.77 315.23 133.35"/>
      <path class="i" d="M343.63,122.61c-2.81,1.27-4.78,2.21-4.78,2.21l-7,13.63a19.14,19.14,0,0,1,1.28,3.19c1.69,6.27,9.64,7.14,17,6.64Z"/>
      <path class="i" d="M338.85,124.82s3.71-9.16,2.22-11.76a3.87,3.87,0,0,0-2.15-1.75,2.2,2.2,0,0,0-2.79,1.38v0a2,2,0,0,0-.11.6c-.42,5.87-4,10.92-5.34,16.33-1,4.08.06,6.49,1.17,8.84Z"/>
      <path class="i" d="M369.44,114.86c.15,2.43-1.09,4.49-2.77,4.59s-3.17-1.78-3.33-4.21,1.09-4.49,2.77-4.59S369.29,112.43,369.44,114.86Z"/>
      <path class="i" d="M370.45,122.86c.15,2.43-1.09,4.48-2.77,4.59s-3.18-1.78-3.33-4.21,1.08-4.49,2.77-4.6S370.29,120.42,370.45,122.86Z"/>
      <ellipse class="i" cx="368.24" cy="131.2" rx="3" ry="4.5" transform="translate(-5.45 16.45) rotate(-2.54)"/>
      <path class="i" d="M372.22,138.93c.12,2.43-1.15,4.47-2.83,4.55s-3.15-1.82-3.27-4.26,1.15-4.47,2.84-4.55S372.1,136.5,372.22,138.93Z"/>
      <path class="j" d="M223.23,219.82l.14-75.13s31.38,22.09,44.35,20.92c22.2-2,62.47-15.22,62.47-15.22-.86-13.56-6-19.6-6-19.6s-14.85,1-31.53,2.61c-18.27,1.76-24.16,3.22-24.16,3.22s-22.31-17.19-37.82-26.08c-7.92-4.54-16.72-9.06-21.74-10.91s-6.26-1.92-6.26-1.92H174.32A39.5,39.5,0,0,0,168.23,99c-6.52,1.72-16.53,6.4-25.8,11.67-15.54,8.84-32,23.94-32,23.94s-2.14-8.15-13.07-21-13.1-18.84-13.1-18.84-4.92,7.07-18,10c0,0,18.23,57.69,40.41,59.76,13,1.22,47.09-19.88,47.09-19.88L152,219.77Z"/>
      <path class="h" d="M199.4,68.74s-.18,19.52,5.07,28.87a16.48,16.48,0,0,1-29.42,0c5.27-9.34,5.43-28.86,5.43-28.86Z"/>
      <g>
        <path class="k" d="M165.12,52.62l-.53.09h0a7.21,7.21,0,1,0,6,1.46c.18,2.12-.16,4.74-2.87,5l.09-4.14a2.49,2.49,0,0,0-2.54-2.42h-.15Z"/>
        <path class="k" d="M214.84,52.62a2.45,2.45,0,0,1,.53.09h0a7.19,7.19,0,1,1-6,1.44c-.19,2.12.15,4.74,2.85,5L212.16,55a2.45,2.45,0,0,1,2.52-2.39h.16Z"/>
      </g>
      <path class="l" d="M189.79,16.7h0a24.58,24.58,0,0,0-24.56,24.48v22.3A24.59,24.59,0,0,0,189.68,88h0a24.59,24.59,0,0,0,24.55-24.48V41.22A24.57,24.57,0,0,0,189.79,16.7Z"/>
      <g>
        <g>
          <path class="m" d="M202.66,63.9A3.31,3.31,0,1,0,206,67.18v0A3.31,3.31,0,0,0,202.66,63.9Z"/>
          <path class="m" d="M177,64.39a3.31,3.31,0,1,0,3.36,3.26h0A3.31,3.31,0,0,0,177,64.39Z"/>
        </g>
        <g>
          <path class="n" d="M182,46.56a1,1,0,1,1-.83,1.82h0a6.47,6.47,0,0,0-5.9.37,1,1,0,0,1-1.38-.32h0a1,1,0,0,1,.31-1.38h0A8.63,8.63,0,0,1,182,46.56Z"/>
          <path class="n" d="M205.58,47a1,1,0,0,1-1,1.75h0a6.46,6.46,0,0,0-5.91-.11,1,1,0,0,1-1.34-.43h0a1,1,0,0,1,.42-1.35h0A8.61,8.61,0,0,1,205.58,47Z"/>
        </g>
        <path class="o" d="M190.53,60.78a20.52,20.52,0,0,1,1.15,3.77c-.1.51-2.74,1-3.43.31-.46-.45.11-2.42.62-3.75C189.55,59.3,189.93,59.16,190.53,60.78Z"/>
        <g>
          <path class="n" d="M194,68.72a.92.92,0,0,1,.93.91h0a5,5,0,0,1-10,0,.91.91,0,0,1,.92-.91Z"/>
          <path class="p" d="M186.23,68.71h7v1c.23.45-.14.81-.58,1h-5.56a1.33,1.33,0,0,1-.86-1Z"/>
          <path class="q" d="M193.5,73.26a5,5,0,0,1-7.06.19l-.2-.19a5,5,0,0,1,7.06-.19h0C193.37,73.13,193.44,73.19,193.5,73.26Z"/>
        </g>
        <g>
          <path class="n" d="M178.22,59.94a2.88,2.88,0,1,0-2.87-2.89h0A2.9,2.9,0,0,0,178.22,59.94Z"/>
          <path class="n" d="M201.56,60a2.88,2.88,0,1,0-2.87-2.89h0A2.86,2.86,0,0,0,201.54,60h0Z"/>
        </g>
      </g>
      <path class="n" d="M214.48,58.59s-2.84-2.91-2.21-9.78a21.09,21.09,0,0,1-3.34-7.11c-.67-3.48,1.77-11.39,1.77-11.39h4.64c1.76,0,2.68,4.69,3.19,6.87s-1.57,16-1.57,16C216,52.67,214.48,55,214.48,58.59Z"/>
      <path class="n" d="M216.5,35s5-1.46,6.47-5.19-1.63-6.07-4.94-4.28a19.19,19.19,0,0,0-11.59-16c-11.27-5.07-27.39,1.27-27.39,1.27S175.79-1.2,165.44.1s-12.56,31,.09,35.18,34.59.44,34.59.44,4.55,5.88,9.51,4.9A10,10,0,0,0,216.5,35Z"/>
      <path class="n" d="M165.29,58.52s2.85-2.91,2.24-9.78a21.27,21.27,0,0,0,3.36-7.1c.68-3.47-1.74-11.39-1.74-11.39h-4.64c-1.75,0-2.69,4.68-3.21,6.86s1.52,16,1.52,16C163.85,52.59,165.29,55,165.29,58.52Z"/>
      <path class="p" d="M175,97.21l-5.56.88.89.91c3.09,7.25,11.54,11.36,17.6,12.47a18.54,18.54,0,0,0,14.46-2.86A19.79,19.79,0,0,0,209,99.7l.22-.4c-1.5-.19-2.94-1.7-4.39-1.87a.35.35,0,0,0-.33.19C198.21,109.54,178.6,103.86,175,97.21Z"/>
      <g>
        <rect class="r" x="342.55" y="104.87" width="23.42" height="44.81" rx="2.71" transform="translate(-13.13 45.28) rotate(-7.18)"/>
        <path class="s" d="M356.29,107.41l-9,1.13a1.43,1.43,0,0,1-1.48-.8L345,106l12.87-1.62-.37,1.85A1.43,1.43,0,0,1,356.29,107.41Z"/>
        <rect class="t" x="342.55" y="104.87" width="23.42" height="44.81" rx="2.71" transform="translate(-13.13 45.28) rotate(-7.18)"/>
        <g>
          <rect class="j" x="351.65" y="120.22" width="5.23" height="14.11" rx="0.69" transform="translate(-13.13 45.28) rotate(-7.18)"/>
          <rect class="j" x="347.21" y="124.66" width="14.11" height="5.23" rx="0.69" transform="translate(-13.13 45.28) rotate(-7.18)"/>
        </g>
      </g>
      <path class="u" d="M152.4,201.17l-.4,18.54,71.26.11V201.76C191.15,219.83,163.48,207.73,152.4,201.17Z"/>
    </g>
    <g>
      <path class="v" d="M310.57,87.12a8,8,0,1,1-6.29-9.41h0A8,8,0,0,1,310.57,87.12Zm-13.28-2.63a5.5,5.5,0,1,0,6.47-4.32h0a5.49,5.49,0,0,0-6.47,4.32Z"/>
      <g>
        <g>
          <path class="v" d="M328.14,68.49a1.25,1.25,0,0,1-1.44,1h0l-5.44-1.08a1.25,1.25,0,0,1-1-1.46h0a1.23,1.23,0,0,1,1.44-1h0l5.47,1a1.22,1.22,0,0,1,1,1.42v0Z"/>
          <path class="v" d="M337.65,70.38a1.26,1.26,0,0,1-1.47,1h0l-5.43-1.08a1.26,1.26,0,0,1-1-1.46v0a1.23,1.23,0,0,1,1.43-1h0l5.43,1.08a1.23,1.23,0,0,1,1,1.43Z"/>
        </g>
        <g>
          <path class="v" d="M331.7,61.27l-1,4.88a1.27,1.27,0,0,1-1.52.93,1.25,1.25,0,0,1-.95-1.42l1-4.88a1.24,1.24,0,0,1,1.51-.93A1.26,1.26,0,0,1,331.7,61.27Z"/>
          <path class="v" d="M329.63,71.64l-1,4.88a1.25,1.25,0,0,1-1.44,1h0a1.26,1.26,0,0,1-1-1.48h0l1-4.88a1.26,1.26,0,0,1,1.46-1h0a1.24,1.24,0,0,1,1,1.44Z"/>
        </g>
      </g>
      <g>
        <g>
          <path class="v" d="M335.7,30.51a1.23,1.23,0,0,1-1.42,1h0l-5.43-1.08a1.25,1.25,0,1,1,.2-2.5,1.09,1.09,0,0,1,.3.07l5.42,1a1.27,1.27,0,0,1,1,1.49Z"/>
          <path class="v" d="M345.21,32.4a1.23,1.23,0,0,1-1.42,1h0l-5.44-1.1a1.25,1.25,0,0,1-1-1.46h0a1.26,1.26,0,0,1,1.48-1l5.43,1.08a1.26,1.26,0,0,1,1,1.47h0Z"/>
        </g>
        <g>
          <path class="v" d="M339.29,23.29l-1,4.88a1.24,1.24,0,0,1-1.44,1h0a1.26,1.26,0,0,1-1-1.46h0l1-4.88a1.26,1.26,0,0,1,2.48.45v0Z"/>
          <path class="v" d="M337.19,33.66l-1,4.88a1.23,1.23,0,0,1-1.42,1h0a1.23,1.23,0,0,1-1-1.44h0l1-4.88a1.26,1.26,0,0,1,1.48-1,1.25,1.25,0,0,1,1,1.45v0Z"/>
        </g>
      </g>
      <path class="v" d="M318.13,49.13a8,8,0,1,1-6.29-9.41,8,8,0,0,1,6.29,9.41ZM304.89,46.5a5.5,5.5,0,1,0,6.47-4.32h0a5.49,5.49,0,0,0-6.47,4.32Z"/>
    </g>
    <ellipse class="v" cx="27.05" cy="202.47" rx="19.48" ry="25.52" transform="translate(-51.12 13.75) rotate(-14.89)"/>
    <ellipse class="v" cx="42.18" cy="159.89" rx="9.39" ry="7.34" transform="translate(-119.28 124.18) rotate(-62.75)"/>
    <g>
      <ellipse class="b" cx="58.37" cy="301.55" rx="35.65" ry="35.1" transform="translate(-196.13 129.6) rotate(-45)"/>
      <path class="j" d="M71.88,279.59h-27A5.44,5.44,0,0,0,39.46,285v33.1a5.45,5.45,0,0,0,5.43,5.42h27a5.45,5.45,0,0,0,5.43-5.42V285A5.45,5.45,0,0,0,71.88,279.59ZM44.06,289a2,2,0,0,1,2-2h7.79a2,2,0,0,1,2,2v7.77a2,2,0,0,1-2,2H46.09a2,2,0,0,1-2-2Zm1.61,17.72a1.43,1.43,0,0,1-1.29-1.55,1.39,1.39,0,0,1,1.29-1.28H66.14a1.41,1.41,0,0,1,1.29,1.53,1.42,1.42,0,0,1-1.29,1.3Zm14.56,4a1.44,1.44,0,0,1-1.42,1.42H45.67a1.42,1.42,0,0,1,0-2.83H58.81a1.42,1.42,0,0,1,1.42,1.42h0Zm10.89,6.57H45.67a1.42,1.42,0,0,1,0-2.83H71.12a1.42,1.42,0,0,1,.26,2.83h-.26Zm1.62-23.16a.93.93,0,0,1-.93.93h-4v4a.93.93,0,0,1-.92.93H64.48a.93.93,0,0,1-.91-.93v-4H59.51a.92.92,0,0,1-.92-.92h0v-2.39a.92.92,0,0,1,.92-.92h4v-4a.91.91,0,0,1,.91-.92h2.41a.92.92,0,0,1,.92.92h0v4h4a.92.92,0,0,1,.93.9v2.39Z"/>
    </g>
    <path class="b" d="M85.77,282.51l9.35-21.63a1.86,1.86,0,0,0-2.44-2.44L68.49,268.91a.64.64,0,0,0-.14,1.1l16.43,12.76A.65.65,0,0,0,85.77,282.51Z"/>
    <g>
      <ellipse class="b" cx="311.96" cy="261.24" rx="27.54" ry="27.98" transform="translate(-93.35 297.1) rotate(-45)"/>
      <g>
        <path class="j" d="M321.57,246.92a10,10,0,0,0-9.62,7.25A10,10,0,0,0,292.31,257c0,8.95,12.54,18.4,17.57,21.86a3.5,3.5,0,0,0,4.08-.08C319,275,331.6,264.89,331.6,257a10,10,0,0,0-10-10Z"/>
        <path class="w" d="M317,266l-1.2-4.31a.36.36,0,0,0-.33-.27.4.4,0,0,0-.38.22L312,269l-3-10.47a.36.36,0,0,0-.36-.27.38.38,0,0,0-.36.26l-1.82,6.06h-13.1c.16.24.32.47.48.75h13.23l1.58-5.32,2.91,10.21a.42.42,0,0,0,.35.26h0a.42.42,0,0,0,.36-.22l3.1-7.29,1,3.8h11.75c.21-.23.4-.47.59-.71Z"/>
      </g>
      <path class="b" d="M291.05,247.52l-7.81-18.07a1.55,1.55,0,0,1,2-2l20.2,8.75a.54.54,0,0,1,.12.92l-13.73,10.65A.53.53,0,0,1,291.05,247.52Z"/>
    </g>
  </g>
</svg>
