<svg xmlns="http://www.w3.org/2000/svg" width="445.46" height="409.67" viewBox="0 0 445.46 409.67">
  <defs>
    <style>
      .a, .ab, .ac, .ad, .y {
        isolation: isolate;
      }

      .ad, .b, .e, .t {
        fill: #fff;
      }

      .c {
        fill: #cdcdcd;
      }

      .d {
        fill: #666;
      }

      .e {
        opacity: 0.2;
      }

      .f {
        fill: #e7e7e7;
      }

      .g {
        fill: #4d4d4d;
        opacity: 0.1;
      }

      .g, .n {
        mix-blend-mode: multiply;
      }

      .h {
        fill: #ef9e56;
      }

      .i, .p {
        fill: #e7b3a2;
      }

      .j {
        fill: #383838;
      }

      .k {
        fill: #9fabbb;
      }

      .l {
        fill: #fcb469;
      }

      .m {
        fill: #fccda2;
      }

      .n {
        opacity: 0.15;
      }

      .o {
        fill: #cf8577;
      }

      .o, .p, .q, .r, .s, .t, .u {
        fill-rule: evenodd;
      }

      .q {
        fill: #d7766d;
      }

      .r {
        fill: #54514f;
      }

      .s {
        fill: #f3d9c7;
      }

      .u {
        fill: #d26070;
      }

      .v {
        fill: #e6e6e6;
      }

      .w {
        fill: #f2f2f2;
      }

      .x {
        fill: #b2b2b2;
      }

      .aa, .ab, .ac, .y {
        fill: #ff5353;
      }

      .y {
        opacity: 0.79;
      }

      .z {
        fill: none;
        stroke: #e6ebf0;
        stroke-linecap: square;
        stroke-miterlimit: 10;
        stroke-width: 0.51px;
      }

      .ab, .ad {
        opacity: 0.3;
      }

      .ac {
        opacity: 0.2;
      }

      .ae {
        fill: #c20;
      }

      .af {
        fill: #fa5557;
      }

      .ag {
        fill: #f9fbfc;
      }
    </style>
  </defs>
  <title>Asset 1</title>
  <g class="a">
    <g>
      <g>
        <rect class="b" x="143.13" y="93.59" width="171.44" height="315.57" rx="10.05" transform="matrix(1, -0.01, 0.01, 1, -1.69, 1.55)"/>
        <path class="c" d="M144,372.65l.18,27a10.06,10.06,0,0,0,10.12,10l151.33-1a10.07,10.07,0,0,0,10-10.12l-.19-27Z"/>
        <path class="d" d="M303.45,93.08l-151.33,1a10.05,10.05,0,0,0-10,10.12l2,295.46a10.07,10.07,0,0,0,10.12,10l151.33-1a10.07,10.07,0,0,0,10-10.12l-2-295.46A10.05,10.05,0,0,0,303.45,93.08Zm5.47,299.82a9.48,9.48,0,0,1-9.42,9.55l-139.26.94a9.48,9.48,0,0,1-9.55-9.42l-1.91-284.12a9.48,9.48,0,0,1,9.42-9.55l139.26-.94a9.49,9.49,0,0,1,9.55,9.42Z"/>
        <path class="e" d="M303.45,93.08l-151.33,1a10.05,10.05,0,0,0-10,10.12l2,295.46a10.07,10.07,0,0,0,10.12,10l151.33-1a10.07,10.07,0,0,0,10-10.12l-2-295.46A10.05,10.05,0,0,0,303.45,93.08Zm9.43,303.51a9.84,9.84,0,0,1-9.77,9.9l-146.42,1a9.84,9.84,0,0,1-9.9-9.77l-2-291.55a9.83,9.83,0,0,1,9.76-9.9l146.42-1a9.84,9.84,0,0,1,9.9,9.77Z"/>
        <rect class="f" x="158.9" y="140.75" width="139.3" height="131.79" rx="4.69" transform="translate(-1.39 1.55) rotate(-0.39)"/>
        <g>
          <path class="f" d="M291.84,128a2.57,2.57,0,1,0,2.59,2.55A2.57,2.57,0,0,0,291.84,128Z"/>
          <path class="f" d="M291.76,116.89a2.57,2.57,0,1,0-2.58-2.55A2.58,2.58,0,0,0,291.76,116.89Z"/>
          <path class="f" d="M291.78,119.89a2.58,2.58,0,1,0,2.59,2.56A2.57,2.57,0,0,0,291.78,119.89Z"/>
        </g>
        <rect class="f" x="158.34" y="112.58" width="21.01" height="21.01" rx="1.43" transform="translate(-0.83 1.14) rotate(-0.39)"/>
        <g>
          <rect class="f" x="159.54" y="283.92" width="139.3" height="36.11" rx="3.95" transform="translate(-2.03 1.55) rotate(-0.39)"/>
          <circle class="b" cx="180.25" cy="302.3" r="13.93" transform="translate(-154.84 409.96) rotate(-77)"/>
          <path class="b" d="M289.41,298.28l-86.17.58a2.48,2.48,0,0,1-2.49-2.45h0a2.48,2.48,0,0,1,2.45-2.48l86.17-.58a2.48,2.48,0,0,1,2.49,2.45h0A2.49,2.49,0,0,1,289.41,298.28Z"/>
          <path class="b" d="M273.28,309.9l-70,.47a2.48,2.48,0,0,1-2.48-2.45h0a2.48,2.48,0,0,1,2.45-2.49l70-.47a2.47,2.47,0,0,1,2.48,2.45h0A2.48,2.48,0,0,1,273.28,309.9Z"/>
        </g>
        <g>
          <rect class="f" x="159.83" y="326.86" width="139.3" height="36.11" rx="3.95" transform="translate(-2.32 1.55) rotate(-0.39)"/>
          <circle class="b" cx="180.54" cy="345.25" r="13.93" transform="translate(-2.32 1.22) rotate(-0.39)"/>
          <rect class="b" x="201.04" y="336.58" width="91.1" height="4.93" rx="2.47" transform="translate(-2.28 1.67) rotate(-0.39)"/>
          <path class="b" d="M273.57,352.84l-70,.47a2.47,2.47,0,0,1-2.48-2.45h0a2.47,2.47,0,0,1,2.45-2.48l70-.47a2.47,2.47,0,0,1,2.48,2.45h0A2.47,2.47,0,0,1,273.57,352.84Z"/>
        </g>
        <path class="g" d="M144.77,97.39l8,6.68a1.24,1.24,0,0,0,2-1.1l-1-8.66,0-.22h-1.58A10,10,0,0,0,144.77,97.39Z"/>
      </g>
      <g>
        <path class="h" d="M93.6,149.89s.19-9.89,18.07-10.74C111.67,139.15,110.35,155,93.6,149.89Z"/>
        <g>
          <polygon class="i" points="117.27 151.45 102.82 162.26 92.28 139.73 105.78 131.82 117.27 151.45"/>
          <path class="i" d="M99.81,143.5c3.46-2.37,7.56-2.27,10.46-8.14,2.66-5.41,3.31-12,7.09-17.14a2.39,2.39,0,0,0-1-3.65,4.26,4.26,0,0,0-3-.08c-3.05,1.09-6.44,11.21-6.44,11.21s-9.1-20.51-12.37-23.3-5.18-.36-3.2,4.78,6.43,16.31,6.43,16.31S88.34,109.8,85.48,106c-4-5.36-7.1-3.92-5.46.17,3.33,8.26,10,20.32,10,20.32s-11-13.22-15-15.4c-2-1.08-4.81.76-1.66,5.16,4.41,6.16,10,14.43,10,14.43s-9.29-10.48-11.9-10.5-2.69,3.4.3,6.33S89.46,150.58,99.81,143.5Z"/>
        </g>
        <g>
          <polygon class="i" points="362.04 178.51 362.36 196.55 386.62 191.06 384.59 175.56 362.04 178.51"/>
          <path class="i" d="M392.81,166.68c-3,1.4-5.14,2.43-5.14,2.43l-7.45,14.77a20.4,20.4,0,0,1,1.41,3.43c1.87,6.75,10.47,7.63,18.42,7Z"/>
          <path class="i" d="M387.67,169.11s3.93-9.92,2.3-12.71a4.18,4.18,0,0,0-2.34-1.87,2.38,2.38,0,0,0-3.11,2.14c-.4,6.34-4.18,11.82-5.63,17.68-1.09,4.41.12,7,1.33,9.53Z"/>
          <path class="i" d="M421.61,158.11c.18,2.62-1.14,4.85-2.95,5s-3.44-1.9-3.63-4.52,1.13-4.85,3-5S421.42,155.48,421.61,158.11Z"/>
          <path class="i" d="M422.76,166.73c.19,2.62-1.14,4.85-2.95,5s-3.44-1.89-3.63-4.52,1.14-4.85,2.95-5S422.57,164.11,422.76,166.73Z"/>
          <ellipse class="i" cx="420.49" cy="176.61" rx="3.3" ry="4.76" transform="translate(-9.37 24.22) rotate(-3.26)"/>
          <path class="i" d="M424.81,185.07c.15,2.62-1.21,4.83-3,4.94s-3.41-1.95-3.56-4.58,1.21-4.83,3-4.93S424.66,182.44,424.81,185.07Z"/>
          <g>
            <rect class="b" x="392.06" y="148.57" width="27.02" height="49.73" rx="1.58" transform="translate(-19.36 55.12) rotate(-7.59)"/>
            <path class="j" d="M396,149.63l1,2a1.11,1.11,0,0,0,1.13.53l9.18-1.22a1.14,1.14,0,0,0,1-.81l.39-2.21Z"/>
            <path class="d" d="M414.1,147.21l-23.64,3.15a1.58,1.58,0,0,0-1.36,1.78l6.15,46.16a1.59,1.59,0,0,0,1.78,1.36l23.64-3.15a1.59,1.59,0,0,0,1.36-1.78l-6.15-46.16A1.58,1.58,0,0,0,414.1,147.21ZM420.88,194a1.49,1.49,0,0,1-1.28,1.68l-21.76,2.9a1.5,1.5,0,0,1-1.68-1.28l-5.91-44.39a1.49,1.49,0,0,1,1.28-1.68l21.76-2.9a1.5,1.5,0,0,1,1.68,1.28Z"/>
            <path class="e" d="M414.1,147.21l-23.64,3.15a1.58,1.58,0,0,0-1.36,1.78l6.15,46.16a1.59,1.59,0,0,0,1.78,1.36l23.64-3.15a1.59,1.59,0,0,0,1.36-1.78l-6.15-46.16A1.58,1.58,0,0,0,414.1,147.21Zm7.47,47.27a1.54,1.54,0,0,1-1.33,1.74l-22.87,3.05a1.55,1.55,0,0,1-1.74-1.33l-6.07-45.55a1.54,1.54,0,0,1,1.33-1.74l22.87-3.05a1.55,1.55,0,0,1,1.74,1.33Z"/>
            <path class="g" d="M389.37,151l1.38.89a.2.2,0,0,0,.3-.22l-.34-1.33v0l-.25,0A1.58,1.58,0,0,0,389.37,151Z"/>
          </g>
        </g>
        <path class="k" d="M244.64,141.53l-1-5.83a115.05,115.05,0,0,0-17.47-.94,115.8,115.8,0,0,0-17.47,1.15l-.94,5.84Z"/>
        <path class="l" d="M264.57,272.85l-.46-81.25s34.11,23.64,48.13,22.27c24-2.35,67.43-17,67.43-17-1-14.66-6.62-21.15-6.62-21.15S357,177,339,178.83c-19.74,2-26.09,3.67-26.09,3.67s-24.28-18.4-41.12-27.89c-8.61-4.84-18.16-9.66-23.61-11.62s-6.77-2-6.77-2l-30.68.18a44.31,44.31,0,0,0-6.6,1.48c-7,1.9-17.82,7-27.8,12.82-16.73,9.69-34.45,26.16-34.45,26.16s-2.38-8.8-14.3-22.66-15.88-19.8-15.88-19.8-4,7.46-18.07,10.74c0,0,20.43,62,44.44,64.06,14,1.21,50.76-21.89,50.76-21.89l-1.3,81.26Z"/>
        <path class="h" d="M131.79,164.18s11.94,16.31,12.73,23.28S138,179.34,131.79,164.18Z"/>
        <path class="h" d="M188.8,192.06l-.48,29.8h0s3.05-21.45,3-31c-.11-19.59-2.67-20.18-3.4-10.08-1,14-19.68,22.89-19.82,23C179.28,198,188.8,192.06,188.8,192.06Z"/>
        <path class="h" d="M277.39,200.06c-3.69-3.56-9.49-7.66-11.53-11.59-4.74-9.13-2.86-16.55-4-14.59-.64,1.09.09,7.24.3,15.58.2,8,2.05,20.57,2.05,20.57l0,0-.11-18.47s5.64,3.91,13.28,8.46Z"/>
        <path class="h" d="M246.44,229c0,.89-9.26-1.23-20.68-1.17s-20.65,2.31-20.65,1.42,9.22-4.57,20.63-4.64S246.43,228.13,246.44,229Z"/>
        <path class="h" d="M241.7,237c0,.68-7.11-.95-15.89-.9s-15.87,1.77-15.87,1.09,7.09-3.51,15.86-3.56S241.7,236.26,241.7,237Z"/>
        <path class="h" d="M226.86,263.53c-15.08.09-28.8-3.83-39-10.3l-.32,20.09,77.07-.47-.11-19.27C254.46,259.68,241.3,263.44,226.86,263.53Z"/>
        <path class="h" d="M128.85,210.34A19.34,19.34,0,0,0,138,214a25.73,25.73,0,0,0,8.67-1.22,23.81,23.81,0,0,0-12.13-3.07A25.91,25.91,0,0,0,128.85,210.34Z"/>
        <path class="h" d="M309.63,205.57a23,23,0,0,0-13.6,4.24c6.22,2.69,12.09,4.46,16.21,4.06s8.59-1.14,13.41-2.09C322.23,208,316.33,205.53,309.63,205.57Z"/>
        <path class="h" d="M241.38,141l-30.68.18s-2.54.44-6.6,1.48c2.59,9.41,8.76,27,21.41,41.44a1.28,1.28,0,0,0,1.9,0c12.2-14.25,18.17-31.48,20.74-41.07C243.89,141.54,241.38,141,241.38,141Z"/>
        <path class="l" d="M248.05,143.38l-14.36,1.92,7.76-4.31-.07,0-4.4,0-4.42,2.11,2-2.1-3.33,0-.38.36L231,141l-9.57.06.17.35-.38-.35-3.33,0,2,2.08-4.45-2.06-4.49,0,7.84,4.24-14.36-1.74c.16.54.32,1.11.5,1.7l13.49,2.47-11.93,2.33c.19.55.39,1.1.59,1.66l11.73-1.57-10.16,5.66c.21.53.45,1.08.68,1.62l10.61-5.09-8.71,9.37c.25.53.51,1.06.77,1.59l9.69-9.23-6.82,14.68.86,1.51,8.16-15.09L221,178.49l.86,1.11,4.39-24L231,179.57c.28-.38.57-.75.84-1.13l-3.1-23.21,8.35,15c.29-.51.56-1,.84-1.52l-7-14.62,9.82,9.13c.25-.54.51-1.07.75-1.6l-8.84-9.28,10.69,5c.23-.55.45-1.09.66-1.63l-10.25-5.54,11.78,1.43c.19-.57.38-1.11.56-1.66l-12-2.2,13.48-2.64C247.74,144.49,247.9,143.93,248.05,143.38Z"/>
        <path class="m" d="M241.38,141l-30.68.18s-1,.17-2.68.54c1.08,5.23,5.55,23.66,17.49,38.25a1.19,1.19,0,0,0,1.83,0c11.56-14.47,15.87-32.56,17-38.16C242.43,141.21,241.38,141,241.38,141Z"/>
        <g class="n">
          <path d="M208.69,135.91s4,10.61,17.56,14.7c0,0-4.89,6.63-5.33,13,0,0-13.12-11.34-14.57-21.57A17.85,17.85,0,0,1,208.69,135.91Z"/>
          <path d="M243.63,135.7s-3.85,10.65-17.38,14.91c0,0,5,6.57,5.49,13,0,0,13-11.49,14.31-21.74A17.74,17.74,0,0,0,243.63,135.7Z"/>
        </g>
        <g>
          <path class="b" d="M208.69,135.91s4,10.61,17.56,14.7a11.75,11.75,0,0,0-5.36,9.16s-13.09-7.47-14.54-17.7A17.85,17.85,0,0,1,208.69,135.91Z"/>
          <path class="b" d="M243.63,135.7s-3.85,10.65-17.38,14.91a11.74,11.74,0,0,1,5.47,9.1s13-7.63,14.33-17.88A17.74,17.74,0,0,0,243.63,135.7Z"/>
        </g>
        <g>
          <path class="i" d="M236.68,108.76s0,21.07,5.7,31.12a17.77,17.77,0,0,1-31.75.2c5.62-10.13,5.62-31.19,5.62-31.19Z"/>
          <g>
            <path class="o" d="M199.54,91.39l-.56.1h0A7.76,7.76,0,1,0,205.45,93c.21,2.29-.13,5.12-3,5.43l0-4.48A2.66,2.66,0,0,0,199.54,91.39Z"/>
            <path class="o" d="M253,91.07l.57.09h0a7.76,7.76,0,1,1-6.46,1.6c-.18,2.29.2,5.12,3.12,5.39l-.11-4.48A2.65,2.65,0,0,1,253,91.07Z"/>
          </g>
          <path class="p" d="M226.06,52.5h0a26.63,26.63,0,0,0-26.39,26.7l.15,24.14a26.63,26.63,0,0,0,26.71,26.39h0A26.62,26.62,0,0,0,252.9,103l-.14-24.14A26.62,26.62,0,0,0,226.06,52.5Z"/>
          <g>
            <g>
              <path class="q" d="M240.16,103.46a3.57,3.57,0,1,0,3.66,3.49A3.57,3.57,0,0,0,240.16,103.46Z"/>
              <path class="q" d="M212.44,104.2a3.57,3.57,0,1,0,3.66,3.48A3.56,3.56,0,0,0,212.44,104.2Z"/>
            </g>
            <g>
              <path class="r" d="M217.7,84.91a1.08,1.08,0,1,1-.88,2,7,7,0,0,0-6.36.45,1.09,1.09,0,0,1-1.17-1.83A9.33,9.33,0,0,1,217.7,84.91Z"/>
              <path class="r" d="M243.17,85.24a1.08,1.08,0,0,1,.43,1.46,1.1,1.1,0,0,1-1.47.43,7,7,0,0,0-6.38-.07,1.08,1.08,0,0,1-1.46-.45,1.09,1.09,0,0,1,.45-1.47A9.33,9.33,0,0,1,243.17,85.24Z"/>
            </g>
            <path class="s" d="M227,100.19a22.24,22.24,0,0,1,1.27,4.06c-.1.55-2.95,1.08-3.7.36-.5-.48.1-2.62.64-4C226,98.6,226.38,98.45,227,100.19Z"/>
            <g>
              <path class="r" d="M231.81,109.91A5.41,5.41,0,1,1,221,110a1,1,0,0,1,1-1l8.83,0A1,1,0,0,1,231.81,109.91Z"/>
              <path class="t" d="M222.53,109l7.74,0v.91a.86.86,0,0,1-.86.87l-6,0a.88.88,0,0,1-.88-.86Z"/>
              <path class="u" d="M230.35,113.64a5.4,5.4,0,0,1-7.84,0,5.4,5.4,0,0,1,7.84,0Z"/>
            </g>
            <g>
              <path class="r" d="M213.74,99.38a3.1,3.1,0,1,0-3.12-3.08A3.11,3.11,0,0,0,213.74,99.38Z"/>
              <path class="r" d="M238.94,99.23a3.11,3.11,0,1,0-3.13-3.08A3.11,3.11,0,0,0,238.94,99.23Z"/>
            </g>
          </g>
          <path class="r" d="M252.87,97.63s-3.08-3.12-2.46-10.54a22.87,22.87,0,0,1-3.67-7.65c-.74-3.74,1.82-12.3,1.82-12.3l5,0c1.89,0,2.92,5,3.49,7.39s-1.56,17.32-1.56,17.32C254.41,91.22,252.85,93.8,252.87,97.63Z"/>
          <path class="r" d="M254.86,72.12s5.37-1.62,6.94-5.66-1.81-6.53-5.37-4.58A20.74,20.74,0,0,0,243.79,44.7c-12.2-5.38-29.55,1.6-29.55,1.6s-3.62-12.88-14.78-11.41-13.31,33.51.38,38,37.35.19,37.35.19,5,6.31,10.3,5.22A10.85,10.85,0,0,0,254.86,72.12Z"/>
          <path class="r" d="M199.79,98s3.05-3.15,2.33-10.56a23.13,23.13,0,0,0,3.58-7.7c.7-3.75-2-12.28-2-12.28l-5,0c-1.9,0-2.87,5.07-3.41,7.43s1.77,17.29,1.77,17.29C198.17,91.57,199.76,94.12,199.79,98Z"/>
        </g>
      </g>
      <g>
        <g>
          <rect class="v" x="330.83" y="7.95" width="98.12" height="79.85" rx="7.55"/>
          <path class="w" d="M334.37,30.23V77.92a7,7,0,0,0,7,7h77a7,7,0,0,0,7-7V30.23Z"/>
          <rect class="w" x="352.69" y="16.28" width="71.19" height="5.83"/>
          <path class="w" d="M334.25,18.73a7.08,7.08,0,1,1,7.07,7.08A7.08,7.08,0,0,1,334.25,18.73Z"/>
          <path class="x" d="M342.88,18.73l2-2a1.1,1.1,0,1,0-1.56-1.56l-2,2-2-2a1.1,1.1,0,1,0-1.56,1.56l2,2-2,2a1.1,1.1,0,0,0,.78,1.88,1.13,1.13,0,0,0,.78-.32l2-2,2,2a1.13,1.13,0,0,0,.78.32,1.1,1.1,0,0,0,.78-1.88Z"/>
        </g>
        <g>
          <rect class="w" x="356.25" y="37.32" width="50.73" height="40.58" rx="4.12" transform="translate(-1.05 7.43) rotate(-1.11)"/>
          <circle class="y" cx="363.9" cy="43.75" r="3.47"/>
          <path class="z" d="M360.94,66.29l43.63-1"/>
          <path class="aa" d="M370.85,41.28l12-.27a.8.8,0,0,1,.82.77h0a.8.8,0,0,1-.78.82l-12,.27a.8.8,0,0,1-.82-.78h0A.79.79,0,0,1,370.85,41.28Z"/>
          <path class="ab" d="M370.91,44l7.37-.16a.79.79,0,0,1,.82.77h0a.81.81,0,0,1-.78.82l-7.37.16a.79.79,0,0,1-.81-.77h0A.79.79,0,0,1,370.91,44Z"/>
          <path class="ac" d="M361.42,52.77l40.75-.92a.79.79,0,0,1,.81.77h0a.79.79,0,0,1-.77.82l-40.75.92a.79.79,0,0,1-.81-.78h0A.79.79,0,0,1,361.42,52.77Z"/>
          <path class="ac" d="M361.49,55.8l31.21-.7a.79.79,0,0,1,.82.77h0a.8.8,0,0,1-.78.82l-31.21.7a.79.79,0,0,1-.81-.78h0A.79.79,0,0,1,361.49,55.8Z"/>
          <path class="ac" d="M361.56,58.84l23.55-.54a.8.8,0,0,1,.82.78h0a.79.79,0,0,1-.78.81l-23.55.53a.79.79,0,0,1-.82-.77h0A.8.8,0,0,1,361.56,58.84Z"/>
          <g>
            <path class="ab" d="M396.66,41.27l5.63-.12a1.72,1.72,0,0,1,1.77,1.69h0a1.72,1.72,0,0,1-1.69,1.77l-5.64.13A1.74,1.74,0,0,1,395,43.05h0A1.74,1.74,0,0,1,396.66,41.27Z"/>
            <path class="ad" d="M397.66,42.7l3.69-.09a.31.31,0,0,1,.3.29h0a.3.3,0,0,1-.29.29l-3.69.08a.28.28,0,0,1-.29-.28h0A.28.28,0,0,1,397.66,42.7Z"/>
          </g>
          <g>
            <path class="aa" d="M362.76,70.09l5.63-.13a1.72,1.72,0,0,1,1.77,1.69h0a1.73,1.73,0,0,1-1.69,1.78l-5.64.12a1.73,1.73,0,0,1-1.77-1.69h0A1.73,1.73,0,0,1,362.76,70.09Z"/>
            <path class="ad" d="M363.76,71.51l3.69-.09a.31.31,0,0,1,.3.29h0a.29.29,0,0,1-.29.29l-3.69.09a.29.29,0,0,1-.29-.29h0A.28.28,0,0,1,363.76,71.51Z"/>
          </g>
          <g>
            <path class="aa" d="M380.1,69.69l5.63-.12a1.72,1.72,0,0,1,1.77,1.69h0A1.72,1.72,0,0,1,385.81,73l-5.64.13a1.74,1.74,0,0,1-1.77-1.69h0A1.74,1.74,0,0,1,380.1,69.69Z"/>
            <path class="ad" d="M381.1,71.12l3.69-.09a.29.29,0,0,1,.29.29h0a.28.28,0,0,1-.28.29l-3.69.08a.28.28,0,0,1-.29-.28h0A.28.28,0,0,1,381.1,71.12Z"/>
          </g>
          <g>
            <path class="aa" d="M397.29,69.3l5.63-.12a1.73,1.73,0,0,1,1.78,1.69h0a1.73,1.73,0,0,1-1.7,1.77l-5.63.13a1.74,1.74,0,0,1-1.78-1.69h0A1.75,1.75,0,0,1,397.29,69.3Z"/>
            <path class="ad" d="M398.29,70.73l3.69-.09a.3.3,0,0,1,.3.29h0a.28.28,0,0,1-.28.29l-3.69.09A.31.31,0,0,1,398,71h0A.29.29,0,0,1,398.29,70.73Z"/>
          </g>
        </g>
      </g>
      <g>
        <rect class="v" y="282.74" width="105.29" height="85.69" rx="8.11"/>
        <path class="w" d="M3.79,306.65v51.17a7.52,7.52,0,0,0,7.52,7.52H94a7.52,7.52,0,0,0,7.52-7.52V306.65Z"/>
        <rect class="w" x="23.46" y="291.67" width="76.39" height="6.25"/>
        <path class="w" d="M3.67,294.3a7.6,7.6,0,1,1,7.59,7.6A7.59,7.59,0,0,1,3.67,294.3Z"/>
        <path class="x" d="M12.93,294.3l2.15-2.14a1.18,1.18,0,0,0-1.68-1.67l-2.14,2.14-2.14-2.14a1.18,1.18,0,0,0-1.68,1.67l2.15,2.14-2.15,2.15a1.18,1.18,0,0,0,0,1.67,1.2,1.2,0,0,0,.84.35,1.22,1.22,0,0,0,.84-.35L11.26,296l2.14,2.14a1.22,1.22,0,0,0,.84.35,1.2,1.2,0,0,0,.84-.35,1.18,1.18,0,0,0,0-1.67Z"/>
      </g>
      <g>
        <g>
          <path class="w" d="M148.12,38.65l9.65,21.78a1.61,1.61,0,0,1-2.11,2.14L131,52.18Z"/>
          <path class="w" d="M148.12,38.65l5,11.39a28.76,28.76,0,0,1-9.44,7.5L131,52.18Z"/>
        </g>
        <circle class="w" cx="128.57" cy="28.65" r="28.65" transform="translate(17.39 99.3) rotate(-45)"/>
        <g>
          <path class="b" d="M128.57,23.83a4.83,4.83,0,1,0,4.82,4.82A4.82,4.82,0,0,0,128.57,23.83Z"/>
          <path class="b" d="M113.71,23.83a4.83,4.83,0,1,0,4.82,4.82A4.82,4.82,0,0,0,113.71,23.83Z"/>
          <path class="b" d="M143.42,23.83a4.83,4.83,0,1,0,4.82,4.82A4.82,4.82,0,0,0,143.42,23.83Z"/>
        </g>
      </g>
      <g>
        <g>
          <path class="w" d="M384.39,294.31,372.17,321.9a2,2,0,0,0,2.67,2.71l31.21-13.16Z"/>
          <path class="w" d="M384.39,294.31,378,308.74a36.53,36.53,0,0,0,11.95,9.5l16.1-6.79Z"/>
        </g>
        <circle class="w" cx="409.16" cy="281.65" r="36.3"/>
        <g>
          <path class="ae" d="M422.85,262.78a13.45,13.45,0,0,0-12.9,9.71,13.43,13.43,0,0,0-26.34,3.73c0,15,26.34,31.15,26.34,31.15s26.34-17.87,26.34-31.15A13.44,13.44,0,0,0,422.85,262.78Z"/>
          <path class="b" d="M416.51,287.92l-1.5-5.79a.47.47,0,0,0-.43-.35.49.49,0,0,0-.47.3l-3.91,9.78-3.76-14.05a.47.47,0,0,0-.45-.36.51.51,0,0,0-.46.35l-2.29,8.1H386.77c.19.32.4.64.61,1H403.6a.48.48,0,0,0,.46-.35l1.91-6.78,3.68,13.75a.49.49,0,0,0,.43.36h0a.48.48,0,0,0,.44-.3l3.91-9.76,1.22,4.73a.47.47,0,0,0,.46.36h14.4c.25-.32.5-.63.74-.95Z"/>
        </g>
      </g>
      <g>
        <g>
          <g>
            <path class="w" d="M32.92,167.73l14.23,2.86a1,1,0,0,1,.32,1.81L33.63,181Z"/>
            <path class="w" d="M32.92,167.73l7.44,1.5a17.58,17.58,0,0,1,.41,7.33L33.63,181Z"/>
          </g>
          <circle class="w" cx="21.07" cy="173.94" r="17.46" transform="translate(-28.09 5.77) rotate(-9.39)"/>
        </g>
        <g>
          <rect class="ae" x="18.44" y="166.81" width="5.33" height="14.36"/>
          <rect class="ae" x="13.93" y="171.33" width="14.36" height="5.33"/>
        </g>
      </g>
      <g>
        <g>
          <rect class="af" x="49.25" y="334.85" width="7.58" height="0.98" transform="translate(-224.22 139.4) rotate(-45.76)"/>
          <polygon class="af" points="28.11 355.3 27.69 355.04 27.3 354.74 27.32 354.72 36.66 341.81 37.45 342.39 28.11 355.3"/>
          <rect class="af" x="40.13" y="339.46" width="7.05" height="0.98" transform="translate(-33.65 6.04) rotate(-5.72)"/>
          <polygon class="af" points="64.88 337.76 58.55 332.86 59.15 332.08 64.8 336.47 74.03 327.33 74.72 328.03 64.88 337.76"/>
          <path class="af" d="M26.6,359A2.39,2.39,0,1,1,29,356.56,2.39,2.39,0,0,1,26.6,359Zm0-3.8A1.41,1.41,0,1,0,28,356.56,1.41,1.41,0,0,0,26.6,355.15Z"/>
          <path class="af" d="M38.28,343a2.39,2.39,0,1,1,2.39-2.39A2.4,2.4,0,0,1,38.28,343Zm0-3.81a1.42,1.42,0,1,0,1.41,1.42A1.43,1.43,0,0,0,38.28,339.23Z"/>
          <path class="af" d="M49.05,341.79a2.39,2.39,0,1,1,2.39-2.39A2.4,2.4,0,0,1,49.05,341.79Zm0-3.81a1.42,1.42,0,1,0,1.41,1.42A1.42,1.42,0,0,0,49.05,338Z"/>
          <path class="af" d="M57.21,333.89a2.39,2.39,0,1,1,2.39-2.39A2.4,2.4,0,0,1,57.21,333.89Zm0-3.81a1.42,1.42,0,1,0,1.41,1.42A1.42,1.42,0,0,0,57.21,330.08Z"/>
          <path class="af" d="M75.7,328.72a2.39,2.39,0,1,1,2.39-2.39A2.39,2.39,0,0,1,75.7,328.72Zm0-3.81a1.42,1.42,0,1,0,1.42,1.42A1.42,1.42,0,0,0,75.7,324.91Z"/>
        </g>
        <g>
          <path class="l" d="M69.26,345.73a2.39,2.39,0,1,1,2.39-2.39A2.39,2.39,0,0,1,69.26,345.73Zm0-3.8a1.41,1.41,0,1,0,1.41,1.41A1.42,1.42,0,0,0,69.26,341.93Z"/>
          <path class="l" d="M58.19,352.31a2.39,2.39,0,1,1,2.39-2.39A2.39,2.39,0,0,1,58.19,352.31Zm0-3.8a1.41,1.41,0,1,0,1.41,1.41A1.41,1.41,0,0,0,58.19,348.51Z"/>
          <path class="l" d="M38.83,362.67a2.39,2.39,0,1,1,2.39-2.39A2.39,2.39,0,0,1,38.83,362.67Zm0-3.8a1.41,1.41,0,1,0,1.41,1.41A1.41,1.41,0,0,0,38.83,358.87Z"/>
          <path class="l" d="M48.17,351.45a2.33,2.33,0,0,1-1.63-.67,2.42,2.42,0,0,1-.72-1.72,2.39,2.39,0,1,1,4.77,0h0a2.37,2.37,0,0,1-2.37,2.4Zm0-3.8a1.42,1.42,0,0,0-1.42,1.41,1.46,1.46,0,0,0,.43,1,1.38,1.38,0,0,0,1,.39,1.39,1.39,0,0,0,1.43-1.4h0A1.41,1.41,0,0,0,48.21,347.65Z"/>
          <rect class="l" x="38.1" y="354.18" width="10.81" height="0.98" transform="translate(-257.3 161.8) rotate(-50.34)"/>
          <polygon class="l" points="60.16 349.55 59.67 348.7 67.68 344.1 68.17 344.95 68.06 345.01 60.16 349.55"/>
          <rect class="l" x="52.71" y="346.42" width="0.98" height="6.23" transform="translate(-299.97 366.25) rotate(-84.06)"/>
        </g>
        <polygon class="h" points="25.89 342.67 25.01 342.23 35.51 321.38 45.5 323.91 56.25 319.27 65.37 321.41 74.03 312.59 74.72 313.28 65.68 322.49 56.34 320.29 45.58 324.94 36.03 322.52 25.89 342.67"/>
        <g>
          <path class="ag" d="M27.35,342.45a1.9,1.9,0,1,1-1.9-1.9A1.9,1.9,0,0,1,27.35,342.45Z"/>
          <path class="h" d="M25.45,344.84a2.39,2.39,0,1,1,2.39-2.39A2.39,2.39,0,0,1,25.45,344.84Zm0-3.8a1.42,1.42,0,1,0,1.41,1.41A1.41,1.41,0,0,0,25.45,341Z"/>
        </g>
        <g>
          <path class="ag" d="M37.67,322a1.9,1.9,0,1,1-1.9-1.9A1.9,1.9,0,0,1,37.67,322Z"/>
          <path class="h" d="M35.77,324.34A2.39,2.39,0,1,1,38.16,322,2.39,2.39,0,0,1,35.77,324.34Zm0-3.8A1.41,1.41,0,1,0,37.18,322,1.41,1.41,0,0,0,35.77,320.54Z"/>
        </g>
        <g>
          <path class="ag" d="M47.44,324.43a1.9,1.9,0,1,1-1.9-1.91A1.9,1.9,0,0,1,47.44,324.43Z"/>
          <path class="h" d="M45.54,326.81a2.39,2.39,0,1,1,2.39-2.38A2.39,2.39,0,0,1,45.54,326.81Zm0-3.8A1.42,1.42,0,1,0,47,324.43,1.42,1.42,0,0,0,45.54,323Z"/>
        </g>
        <g>
          <path class="ag" d="M58.19,319.78a1.9,1.9,0,1,1-1.9-1.9A1.9,1.9,0,0,1,58.19,319.78Z"/>
          <path class="h" d="M56.29,322.17a2.39,2.39,0,1,1,2.39-2.39A2.39,2.39,0,0,1,56.29,322.17Zm0-3.8a1.41,1.41,0,1,0,1.41,1.41A1.41,1.41,0,0,0,56.29,318.37Z"/>
        </g>
        <g>
          <path class="ag" d="M67.43,322a1.9,1.9,0,1,1-1.9-1.9A1.9,1.9,0,0,1,67.43,322Z"/>
          <path class="h" d="M65.53,324.34A2.39,2.39,0,1,1,67.92,322,2.39,2.39,0,0,1,65.53,324.34Zm0-3.8A1.41,1.41,0,1,0,66.94,322,1.41,1.41,0,0,0,65.53,320.54Z"/>
        </g>
        <g>
          <path class="ag" d="M76.28,313.13a1.9,1.9,0,1,1-1.9-1.9A1.9,1.9,0,0,1,76.28,313.13Z"/>
          <path class="h" d="M74.38,315.52a2.39,2.39,0,1,1,2.39-2.39A2.4,2.4,0,0,1,74.38,315.52Zm0-3.81a1.42,1.42,0,1,0,0,2.83,1.42,1.42,0,0,0,0-2.83Z"/>
        </g>
        <g>
          <path class="ag" d="M66.74,337.12a1.9,1.9,0,1,1-1.9-1.9A1.9,1.9,0,0,1,66.74,337.12Z"/>
          <path class="af" d="M64.84,339.51a2.39,2.39,0,1,1,2.39-2.39A2.4,2.4,0,0,1,64.84,339.51Zm0-3.81a1.42,1.42,0,1,0,1.41,1.42A1.43,1.43,0,0,0,64.84,335.7Z"/>
        </g>
      </g>
    </g>
  </g>
</svg>
