<svg xmlns="http://www.w3.org/2000/svg" width="594" height="594" viewBox="0 0 594 594">
  <defs>
    <style>
      .a {
        fill: #fa5458;
      }

      .b {
        fill: #fff;
        stroke: #fff;
        stroke-width: 2.02px;
      }

      .b, .h {
        stroke-miterlimit: 10;
      }

      .c {
        fill: #f9d9d9;
      }

      .d {
        fill: #ef9ea2;
      }

      .e, .h {
        fill: #6a3b17;
      }

      .f {
        fill: #d84f3c;
      }

      .g {
        fill: none;
        stroke-linecap: round;
        stroke-linejoin: round;
      }

      .g, .h {
        stroke: #6a3b17;
        stroke-width: 3.72px;
      }
    </style>
  </defs>
  <title>Asset 117</title>
  <g>
    <circle class="a" cx="297" cy="297" r="297"/>
    <g>
      <path class="b" d="M446.64,366.59c0,85.59-61.72,144.51-147.32,144.51S146.9,452.18,146.9,366.59,211.44,190.94,297,190.94,446.64,281,446.64,366.59Z"/>
      <g>
        <path class="c" d="M218.39,213.92c21.49,38-51.63,68.46-91.33,58.4S63.87,219.75,74.6,177.45,126.23,109,166,119.05,204.47,189.3,218.39,213.92Z"/>
        <path class="d" d="M184.85,213.56a37.14,37.14,0,0,1,7.28,10.57l-28,26.5a37.19,37.19,0,0,1-9.78-7.24C143.2,232,141,216.07,149.41,207.85S173.7,202.17,184.85,213.56Z"/>
      </g>
      <g>
        <path class="c" d="M375.61,217c-21.5,38,51.63,68.47,91.34,58.4s63.19-52.56,52.45-94.86-51.63-68.47-91.34-58.4S389.53,192.36,375.61,217Z"/>
        <path class="d" d="M409.17,216.63a37.4,37.4,0,0,0-7.31,10.56l28,26.5a37.27,37.27,0,0,0,9.78-7.26c11.14-11.39,13.35-27.31,4.94-35.54S420.3,205.24,409.17,216.63Z"/>
      </g>
      <g>
        <path class="c" d="M349.08,210.34s8.89-5.57,12.68-10.44c0,0-16.68-32.62-69.23-41.2,0,0-46,8.91-63.25,40l10.48,15.77S291.85,179.31,349.08,210.34Z"/>
        <g>
          <rect class="d" x="288.69" y="167.1" width="10.22" height="24.32" transform="translate(-4.2 7.08) rotate(-1.37)"/>
          <rect class="d" x="281.64" y="174.14" width="24.32" height="10.22" transform="translate(-4.2 7.08) rotate(-1.37)"/>
        </g>
      </g>
      <circle class="e" cx="368.93" cy="318.26" r="10.39"/>
      <circle class="e" cx="227.72" cy="318.26" r="10.39"/>
      <path class="f" d="M287.62,370.68l5.61-.31s3.9-3.88,4.93-3.07a51.48,51.48,0,0,0,6,2.45l3.29-.18a3.74,3.74,0,0,1,3.65,3.8,13.74,13.74,0,0,1-11.78,15.32l-1.56.08a13.75,13.75,0,0,1-13.4-13.92h0A3.76,3.76,0,0,1,287.62,370.68Z"/>
      <g>
        <path class="g" d="M298,345.1a105.47,105.47,0,0,0-.21,20.87s13.08,12,19.12-1.77"/>
        <path class="g" d="M297.78,366s-13.31,11.75-19.06-2.15"/>
      </g>
      <path class="h" d="M287.55,337.78a15.47,15.47,0,0,0,11.21,14.3c5.54.51,12.34-6.88,12.86-12.4s-6.25-7.05-11.8-7.56C293.54,331.54,288.07,332.24,287.55,337.78Z"/>
    </g>
  </g>
</svg>
