<svg xmlns="http://www.w3.org/2000/svg" width="38" height="36.97" viewBox="0 0 38 36.97">
  <defs>
    <style>
      .a {
        fill: #3b4251;
      }
    </style>
  </defs>
  <title>Asset 118</title>
  <path class="a" d="M34.2,0H3.8A3.79,3.79,0,0,0,0,3.8L0,36.25a.73.73,0,0,0,1.24.51L7.6,30.4H34.2A3.81,3.81,0,0,0,38,26.6V3.8A3.81,3.81,0,0,0,34.2,0ZM9.5,13.3h19a1.9,1.9,0,0,1,0,3.8H9.5a1.9,1.9,0,1,1,0-3.8ZM20.9,23.54H9.5a1.9,1.9,0,0,1,0-3.8H20.9a1.9,1.9,0,1,1,0,3.8Zm7.6-12.89H9.5a1.9,1.9,0,0,1,0-3.8h19a1.9,1.9,0,0,1,0,3.8Z"/>
</svg>
