<svg xmlns="http://www.w3.org/2000/svg" width="160.24" height="160.24" viewBox="0 0 160.24 160.24">
  <defs>
    <style>
      .a {
        fill: #fff;
      }
    </style>
  </defs>
  <title>Asset 1</title>
  <path class="a" d="M67.87,58H92.38a2.5,2.5,0,0,0,2.5-2.5V35.85h15.49a2.75,2.75,0,0,0,1.95-4.69L81.89.73a2.52,2.52,0,0,0-3.54,0L47.5,31.59a2.49,2.49,0,0,0,1.77,4.26h16.1V55.49A2.5,2.5,0,0,0,67.87,58ZM55.49,65.37H35.85V49.27a2.49,2.49,0,0,0-4.26-1.77L.73,78.35a2.52,2.52,0,0,0,0,3.54l30.86,30.85A2.49,2.49,0,0,0,35.85,111V94.88H55.49a2.5,2.5,0,0,0,2.5-2.5V67.87A2.5,2.5,0,0,0,55.49,65.37Zm104,13L128.66,47.5a2.5,2.5,0,0,0-4.27,1.77v16.1H104.76a2.49,2.49,0,0,0-2.5,2.5V92.38a2.49,2.49,0,0,0,2.5,2.5h19.63V111a2.5,2.5,0,0,0,4.27,1.76l30.85-30.85A2.5,2.5,0,0,0,159.51,78.35ZM92.38,102.26H67.87a2.49,2.49,0,0,0-2.5,2.5v19.63H49.27a2.5,2.5,0,0,0-1.77,4.27l30.85,30.85a2.5,2.5,0,0,0,3.54,0l30.85-30.85a2.5,2.5,0,0,0-1.76-4.27H94.88V104.76A2.49,2.49,0,0,0,92.38,102.26Z"/>
</svg>
