<svg xmlns="http://www.w3.org/2000/svg" width="40" height="40" viewBox="0 0 40 40">
  <defs>
    <style>
      .a {
        fill: #feb562;
      }

      .b {
        fill: #fff;
      }
    </style>
  </defs>
  <title>Asset 1</title>
  <g>
    <rect class="a" width="40" height="40"/>
    <polygon class="b" points="8 12.72 19.21 1.76 32 10.41 33.54 20 37.09 28.67 23.54 36.75 12.29 36.17 5.76 27.62 4.51 18.39 8 12.72"/>
    <path class="a" d="M20,0A20,20,0,1,0,40,20,20,20,0,0,0,20,0Zm0,6a6,6,0,1,1-6,6A6,6,0,0,1,20,6Zm0,28.4A14.39,14.39,0,0,1,8,28c.06-4,8-6.16,12-6.16S31.94,24,32,28A14.39,14.39,0,0,1,20,34.4Z"/>
  </g>
</svg>
